<svg version="1.1" xmlns="http://www.w3.org/2000/svg" xmlns:xlink="http://www.w3.org/1999/xlink" width="191.99997" height="52.93059" viewBox="0,0,191.99997,52.93059"><g transform="translate(-144.00001,-153.53471)"><g data-paper-data="{&quot;isPaintingLayer&quot;:true}" stroke-width="1" stroke-linecap="butt" stroke-linejoin="miter" stroke-miterlimit="10" stroke-dasharray="" stroke-dashoffset="0" style="mix-blend-mode: normal"><g><path d="M174.3819,161.2237c0.01779,3.31366 -4.44488,6.02395 -9.96765,6.05359c-5.52277,0.02964 -10.01427,-2.63257 -10.03206,-5.94623c-0.00966,-1.79999 1.29378,-5.0886 3.38,-6.19957c1.75435,-0.93424 12.00276,-0.34564 13.17513,0.26261c2.09803,1.0885 3.43492,4.0296 3.44458,5.82959z" data-paper-data="{&quot;index&quot;:null}" fill="#fff9e1" fill-rule="nonzero" stroke="#e9d39d"/><g fill-rule="evenodd" stroke="none"><path d="M335.52709,172.92568c0.63052,0.94582 0.63052,1.89162 0,2.83744c0.06195,-0.34948 -0.01689,-0.66491 -0.23645,-0.94581c-0.88779,3.6026 -1.75476,3.68158 -2.60098,0.23646c-0.0288,-1.06924 0.28643,-2.01506 0.94581,-2.83744c0.90273,-0.21186 1.45448,0.18208 1.65517,1.18227c0.1886,-0.10782 0.26738,-0.26578 0.23645,-0.47291z" fill="#202326"/><path d="M332.21675,172.45277c0.08115,0.46912 -0.07652,0.78408 -0.47291,0.94582c-2.42062,0.28517 -4.62752,-0.03027 -6.62068,-0.94582c0,-0.15748 0,-0.31543 0,-0.4729c2.39404,-0.10688 4.75858,0.05107 7.09359,0.4729z" fill="#f4f6f6"/><path d="M335.52709,172.92568c0.03093,0.20713 -0.04786,0.36509 -0.23645,0.47291c-0.2007,-1.00019 -0.75244,-1.39413 -1.65517,-1.18227c-0.65938,0.82238 -0.97461,1.7682 -0.94581,2.83744c0.84622,3.44512 1.7132,3.36614 2.60098,-0.23646c0.21957,0.2809 0.29841,0.59633 0.23645,0.94581c-0.15781,1.26172 -0.78838,2.20753 -1.89163,2.83744c-1.33312,-0.11444 -2.75184,-0.11444 -4.25616,0c-1.35171,-0.31495 -2.77042,-0.63039 -4.25615,-0.94582c-0.38277,-0.74293 -0.54039,-1.53127 -0.47291,-2.36453c0.31529,0 0.63053,0 0.94582,0c1.50588,0.90515 3.23988,1.2201 5.20197,0.94581c0.84168,-0.70463 1.15697,-1.65044 0.94581,-2.83743c0.39639,-0.16173 0.55406,-0.47669 0.47291,-0.94582c0.14371,-0.30739 0.30138,-0.62282 0.47291,-0.94582c-1.48573,-0.31543 -2.90445,-0.63085 -4.25616,-0.94581c2.09791,-0.13715 4.14715,0.09931 6.14778,0.70936c0.62556,0.38589 0.9408,0.93777 0.94581,1.65517z" fill="#6e7277"/><path d="M332.21675,172.45277c-2.33502,-0.42183 -4.69955,-0.57978 -7.09359,-0.4729c0.28838,-0.42136 0.446,-0.89427 0.47291,-1.41872c0.94581,0 1.89162,0 2.83743,0c1.35171,0.31495 2.77043,0.63038 4.25616,0.94581c-0.17152,0.32299 -0.32919,0.63843 -0.47291,0.94582z" fill="#c3c5c6"/><path d="M331.74384,173.39859c0.21116,1.18699 -0.10413,2.1328 -0.94581,2.83743c0.04057,-0.47101 -0.11709,-0.86495 -0.4729,-1.18227c-1.6678,-0.38211 -3.24419,-0.30313 -4.72906,0.23645c-0.31529,0 -0.63053,0 -0.94582,0c-0.13936,-1.05695 0.01826,-2.00276 0.47291,-2.83744c1.99316,0.91555 4.20006,1.23098 6.62068,0.94582z" fill="#cbcdd0"/><path d="M330.79803,176.23602c-1.96209,0.27428 -3.69609,-0.04067 -5.20197,-0.94581c1.48488,-0.53958 3.06126,-0.61856 4.72906,-0.23645c0.35582,0.31732 0.51348,0.71125 0.4729,1.18227z" fill="#414348"/><path d="M329.37931,178.60056c-1.36453,-0.14471 -2.62562,0.01277 -3.78325,0.4729c-1.78215,0.10357 -2.88558,-0.6843 -3.31035,-2.36453c0,-0.78833 0,-1.5762 0,-2.36453c-0.99282,-0.52587 -2.09625,-0.8413 -3.31034,-0.94581c0.33529,-0.4275 0.8082,-0.58499 1.41872,-0.47291c0,-0.63038 0,-1.26124 0,-1.89163c0.39639,-0.16173 0.55405,-0.47669 0.4729,-0.94581c0.6162,-0.77651 1.24673,-1.56485 1.89163,-2.36453c1.38982,0.19768 2.49325,0.90703 3.31034,2.12808c-0.26294,0.18113 -0.42055,0.41757 -0.4729,0.70936c-0.02691,0.52445 -0.18453,0.99736 -0.47291,1.41872c0,0.15748 0,0.31543 0,0.4729c-0.45465,0.83468 -0.61228,1.78049 -0.47291,2.83744c-0.06748,0.83326 0.09014,1.6216 0.47291,2.36453c1.48573,0.31543 2.90444,0.63086 4.25615,0.94582z" fill="#54585d"/><path d="M324.65024,171.03405c-0.57231,1.5308 -1.04522,3.10699 -1.41872,4.72906c-0.55084,-1.43527 -0.472,-2.85399 0.23646,-4.25616c0.31723,-0.35563 0.7113,-0.51358 1.18226,-0.4729z" fill="#babec1"/><path d="M321.3399,167.72371c-1.36963,0.60296 -2.78835,0.60296 -4.25615,0c0,-0.15748 0,-0.31543 0,-0.4729c1.12055,0.16599 2.22398,0.24496 3.31034,0.23645c-0.88594,-0.80583 -1.67414,-1.67267 -2.36453,-2.60098c0.31529,0 0.63053,0 0.94581,0c0.78328,0.9269 1.57146,1.8727 2.36453,2.83743z" fill="#5f6365"/><path d="M318.97537,164.88627c-0.31529,0 -0.63053,0 -0.94581,0c0.7627,-1.44094 0.44747,-2.62322 -0.94581,-3.5468c-7.39616,-0.66349 -14.80505,-1.05742 -22.2266,-1.18227c-0.68666,-0.37927 -1.47452,-0.61572 -2.36453,-0.70936c-11.51905,-0.12911 -23.02628,-0.52351 -34.52216,-1.18227c-0.15748,0 -0.31543,0 -0.47291,0c0,-0.15748 0,-0.31543 0,-0.4729c20.24417,-0.02128 40.42148,1.08201 60.53202,3.31034c1.3614,1.03141 1.67665,2.29266 0.94581,3.78326z" fill="#032435"/><path d="M317.08374,167.2508c-0.63052,0 -1.2611,0 -1.89163,0c0,-0.78833 0,-1.5762 0,-2.36453c0.94581,0 1.89162,0 2.83744,0c0.6904,0.92831 1.47859,1.79515 2.36453,2.60098c-1.08636,0.00851 -2.1898,-0.07046 -3.31034,-0.23645z" fill="#b8c0c2"/><path d="M320.86699,170.08824c0.08115,0.46912 -0.07651,0.78408 -0.4729,0.94581c-17.80246,-1.16193 -35.61505,-2.18672 -53.43842,-3.07389c-0.26294,-0.18113 -0.42041,-0.41757 -0.47291,-0.70936c0,-0.15748 0,-0.31543 0,-0.47291c0.31543,-0.15748 0.63038,-0.31543 0.94581,-0.47291c17.65501,0.85217 35.31031,1.8765 52.96551,3.07389c0.26294,0.18113 0.42055,0.41757 0.4729,0.70936z" fill="#f8f9f9"/><path d="M318.02955,164.88627c-0.94581,0 -1.89162,0 -2.83744,0c-2.36453,0 -4.72906,0 -7.09359,0c-11.76387,-0.74955 -23.58668,-1.5379 -35.46798,-2.36454c-0.19768,-0.34144 -0.51263,-0.57789 -0.94581,-0.70936c-8.51988,-0.46865 -16.87472,-1.178 -25.06404,-2.12807c23.36725,1.23239 46.69714,2.80906 69.99014,4.72906c0.58215,-0.54432 0.58215,-1.09572 0,-1.65517c-25.36055,-1.67977 -50.74002,-3.01998 -76.13793,-4.0197c-2.36453,-0.31543 -4.72907,-0.63038 -7.0936,-0.94581c8.0361,0.28564 16.07551,0.44311 24.11823,0.4729c0.15748,0 0.31543,0 0.47291,0c3.21907,0.57411 6.52941,0.96804 9.93103,1.18227c8.98428,0.30786 17.9695,0.54432 26.95567,0.70936c7.42156,0.12484 14.83044,0.51878 22.2266,1.18227c1.39328,0.92359 1.70851,2.10586 0.94581,3.5468z" fill="#15698f"/><path d="M317.08374,167.2508c0,0.15748 0,0.31543 0,0.4729c-1.5195,0.1466 -2.93822,-0.01087 -4.25616,-0.4729c0.63052,0 1.26111,0 1.89163,0c0,-0.4729 0,-0.94582 0,-1.41872c-8.28423,-0.21801 -16.48127,-0.69092 -24.59114,-1.41872c5.99371,0.04824 11.98383,0.20572 17.97044,0.47291c2.36453,0 4.72906,0 7.09359,0c0,0.78833 0,1.5762 0,2.36453c0.63052,0 1.2611,0 1.89163,0z" fill="#081d29"/><path d="M270.73892,178.60056c-0.18775,0.48473 -0.5027,0.5637 -0.94581,0.23645c-0.37502,-0.5131 -0.69044,-1.06499 -0.94581,-1.65517c0.79212,-0.3963 1.73793,-0.8692 2.83744,-1.41872c8.66884,0.41663 17.33911,0.96804 26.00985,1.65517c-7.41233,0.04351 -14.82136,-0.19295 -22.2266,-0.70936c-1.73415,0.15748 -3.46782,0.31543 -5.20197,0.47291c0.29651,0.43365 0.45446,0.90656 0.47291,1.41872z" fill="#40454d"/><path d="M292.96552,187.11287c-0.19768,0.34144 -0.51264,0.57788 -0.94582,0.70935c-4.4108,0.23646 -8.8249,0.31495 -13.24138,0.23646c-5.41998,-0.75618 -10.93738,-1.07113 -16.55172,-0.94581c0,-0.4729 0,-0.94582 0,-1.41872c-7.50124,0.11681 -14.9098,-0.19815 -22.2266,-0.94581c6.78006,0.09222 13.5587,0.2497 20.33497,0.4729c1.41872,0 2.83744,0 4.25616,0c9.36922,0.89426 18.82735,1.52465 28.37439,1.89163z" fill="#0c5b78"/><path d="M322.75862,167.72371c-0.6449,0.79969 -1.27543,1.58802 -1.89163,2.36453c-0.05235,-0.29179 -0.20997,-0.52823 -0.4729,-0.70936c-17.65521,-1.1974 -35.3105,-2.22172 -52.96551,-3.07389c0.31543,-0.4729 0.63038,-0.94581 0.94581,-1.41871c14.81474,0.82522 29.63264,1.61308 44.45319,2.36453c1.31795,0.46203 2.73667,0.61951 4.25616,0.4729c1.4678,0.60296 2.88653,0.60296 4.25615,0c0.47291,0 0.94581,0 1.41872,0z" fill="#bdc1c3"/><path d="M320.39409,171.03405c0,0.63038 0,1.26124 0,1.89163c-0.61052,-0.11208 -1.08343,0.04541 -1.41872,0.47291c-1.52351,-0.18538 -2.94223,0.05107 -4.25615,0.70935c1.75491,0.47811 3.48891,1.02999 5.20197,1.65517c0.34716,0.57127 0.50478,1.20166 0.47291,1.89163c-17.16891,-1.10282 -34.35098,-2.04863 -51.5468,-2.83744c-0.78834,0 -1.57619,0 -2.36453,0c-1.47783,-0.46298 -3.05403,-0.62092 -4.72906,-0.4729c0.47291,-0.63038 0.94581,-1.26124 1.41872,-1.89163c0.15748,0 0.31543,0 0.47291,0c1.41872,0 2.83743,0 4.25615,0c5.51267,0.28658 11.03007,0.44406 16.55173,0.4729c0.36083,0.36319 0.83373,0.59965 1.41872,0.70936c2.83318,0.23598 5.67062,0.31495 8.51232,0.23646c5.60163,0.10829 11.11888,0.5812 16.55172,1.41872c1.29746,-0.2705 1.69154,-1.05837 1.18227,-2.36453c-1.27567,-1.02763 -2.61555,-1.1851 -4.0197,-0.4729c-2.99506,0 -5.99016,0 -8.98523,0c-4.33206,-0.46156 -8.74592,-0.77698 -13.24138,-0.94582c-6.44288,-0.67247 -12.90609,-0.9879 -19.38916,-0.94581c-0.99642,-0.45777 -2.10018,-0.61572 -3.31034,-0.4729c-6.31047,-0.30455 -12.61572,-0.54101 -18.91625,-0.70936c-1.50857,1.11795 -2.9273,2.30022 -4.25616,3.5468c-0.15748,0 -0.31543,0 -0.4729,0c-0.81151,-0.061 -1.59984,-0.21848 -2.36453,-0.4729c-0.66869,-1.11937 -1.29955,-2.30164 -1.89163,-3.5468c0.41663,-0.33482 0.73159,-0.72922 0.94582,-1.18227c5.82857,0.2809 11.66092,0.43839 17.49754,0.47291c3.54159,0.47905 7.16737,0.79448 10.87685,0.94581c0.83326,-0.36035 1.30617,-0.99121 1.41872,-1.89162c0.15748,0 0.31543,0 0.47291,0c0.0525,0.29179 0.20997,0.52823 0.47291,0.70936c17.82337,0.88717 35.63596,1.91196 53.43842,3.07389z" fill="#cbcacb"/><path d="M294.38424,173.87149c-2.8417,0.0785 -5.67913,-0.00047 -8.51232,-0.23646c-0.58499,-0.10971 -1.05789,-0.34617 -1.41872,-0.70936c0,-0.15748 0,-0.31543 0,-0.4729c0.31543,0 0.4729,-0.15748 0.4729,-0.4729c0.46913,0.08134 0.78408,-0.07662 0.94581,-0.47291c4.49545,0.16883 8.90931,0.48426 13.24138,0.94582c-0.80356,-0.07566 -1.59175,0.00284 -2.36453,0.23646c2.04924,0.15748 4.09854,0.31543 6.14778,0.4729c-2.92289,0.08134 -5.76033,0.31779 -8.51232,0.70936z" fill="#d7756e"/><path d="M310.93596,175.29021c-5.43284,-0.83751 -10.9501,-1.31042 -16.55172,-1.41872c2.75198,-0.39157 5.58943,-0.62802 8.51232,-0.70936c-2.04924,-0.15748 -4.09854,-0.31543 -6.14778,-0.4729c0.77278,-0.23361 1.56097,-0.31212 2.36453,-0.23646c2.99506,0 5.99016,0 8.98523,0c2.79455,-0.67436 3.74036,0.27145 2.83744,2.83744z" fill="#be4a46"/><path d="M310.93596,173.39859c-0.22246,0.56418 -0.69536,0.8796 -1.41872,0.94581c-1.26673,-0.20619 -2.52783,-0.44264 -3.78325,-0.70936c1.72686,-0.23598 3.46087,-0.31448 5.20197,-0.23645z" fill="#fa9a90"/><path d="M310.93596,175.29021c0.90292,-2.56599 -0.04289,-3.5118 -2.83744,-2.83744c1.40416,-0.7122 2.74404,-0.55472 4.0197,0.4729c0.50928,1.30616 0.1152,2.09403 -1.18227,2.36453z" fill="#722e2d"/><path d="M319.92118,175.76312c-1.71305,-0.62518 -3.44706,-1.17706 -5.20197,-1.65517c1.31392,-0.65829 2.73264,-0.89473 4.25615,-0.70935c0.18561,0.84366 0.5009,1.63152 0.94581,2.36453z" fill="#505357"/><path d="M278.77833,188.05868c4.41647,0.0785 8.83058,0 13.24138,-0.23646c0.43318,-0.13147 0.74814,-0.36791 0.94582,-0.70935c0,-0.63038 -0.31543,-0.94582 -0.94582,-0.94582c-1.1241,-0.65592 -2.38486,-1.05033 -3.78325,-1.18227c-4.72906,-0.15748 -9.45812,-0.31543 -14.18719,-0.4729c-1.58471,-0.02695 -3.00343,-0.42136 -4.25616,-1.18227c1.26124,0 2.52202,0 3.78325,0c4.72717,0.23646 9.45623,0.4729 14.18719,0.70936c1.98195,0.035 3.87357,0.42892 5.67487,1.18227c0.98932,1.08248 1.14727,2.26475 0.47291,3.5468c-4.41363,0.31543 -8.82774,0.31543 -13.24138,0c-0.73679,-0.09931 -1.36717,-0.33577 -1.89163,-0.70936z" fill="#05212d"/><path d="M325.59606,179.07346c-1.00124,1.64004 -2.49879,2.27089 -4.49261,1.89163c-13.00455,-0.49561 -26.00947,-0.96851 -39.01477,-1.41872c-3.73643,-0.32867 -7.51969,-0.64409 -11.34976,-0.94581c-0.01844,-0.51216 -0.1764,-0.98507 -0.47291,-1.41872c1.73415,-0.15748 3.46782,-0.31543 5.20197,-0.47291c7.40524,0.51641 14.81427,0.75287 22.2266,0.70936c-8.67074,-0.68714 -17.34101,-1.23854 -26.00985,-1.65517c-1.187,0.21091 -2.13281,-0.10404 -2.83744,-0.94581c17.19582,0.78881 34.37788,1.73462 51.5468,2.83744c0.03188,-0.68997 -0.12575,-1.32036 -0.47291,-1.89163c-0.44491,-0.733 -0.7602,-1.52086 -0.94581,-2.36453c1.21409,0.10451 2.31752,0.41994 3.31034,0.94581c-0.47291,0 -0.94581,0 -1.41872,0c-0.14135,0.99499 0.01627,1.94081 0.47291,2.83744c0.32323,-0.17166 0.63847,-0.32914 0.94581,-0.47291c0.42476,1.68024 1.5282,2.4681 3.31035,2.36453z" fill="#6e747e"/><path d="M322.28571,174.3444c0,0.78833 0,1.5762 0,2.36453c-0.30734,0.14377 -0.62258,0.30124 -0.94581,0.47291c-0.45664,-0.89663 -0.61426,-1.84244 -0.47291,-2.83744c0.47291,0 0.94581,0 1.41872,0z" fill="#d5d8dd"/><path d="M284.4532,172.45277c0,0.15748 0,0.31543 0,0.4729c-5.52166,-0.02884 -11.03906,-0.18633 -16.55173,-0.4729c0.33529,-0.4275 0.8082,-0.58498 1.41872,-0.4729c5.04307,0.19484 10.0871,0.35232 15.13301,0.4729z" fill="#cb3d3a"/><path d="M294.85714,160.15721c-8.98616,-0.16504 -17.97139,-0.4015 -26.95567,-0.70936c-3.40161,-0.21422 -6.71195,-0.60816 -9.93103,-1.18227c11.49588,0.65876 23.00311,1.05316 34.52216,1.18227c0.89001,0.09364 1.67787,0.33009 2.36453,0.70936z" fill="#014c6c"/><path d="M285.87192,171.50696c-0.16174,0.3963 -0.47669,0.55425 -0.94581,0.47291c-5.20245,-0.13904 -10.40441,-0.29699 -15.60591,-0.47291c-1.53553,-0.35563 -3.1122,-0.59207 -4.72906,-0.70935c0.61147,-0.23173 1.24233,-0.3107 1.89163,-0.23646c6.48307,-0.04209 12.94628,0.27334 19.38916,0.94581z" fill="#bb5856"/><path d="M280.66995,190.89612c-9.15215,-0.50554 -18.29485,-1.13592 -27.42857,-1.89163c-0.31543,0 -0.63039,0 -0.94582,0c-0.83279,-0.38448 -1.62112,-0.85738 -2.36453,-1.41872c3.46025,0.29226 6.92855,0.44974 10.40394,0.4729c6.67318,0.13147 13.29387,0.76185 19.86207,1.89163c0.17167,0.32299 0.32915,0.63843 0.47291,0.94582z" fill="#5c0709"/><path d="M284.92611,171.97987c0,0.31543 -0.15747,0.4729 -0.4729,0.4729c-5.04591,-0.12059 -10.08993,-0.27807 -15.13301,-0.4729c0,-0.15748 0,-0.31543 0,-0.47291c5.2015,0.17592 10.40346,0.33388 15.60591,0.47291z" fill="#f1b4b1"/><path d="M292.96552,187.11287c-9.54703,-0.36697 -19.00517,-0.99737 -28.37439,-1.89163c1.05694,0.13951 2.00276,-0.01844 2.83744,-0.4729c8.18885,0.60721 16.38573,1.08012 24.59113,1.41872c0.63038,0 0.94582,0.31543 0.94582,0.94582z" fill="#b6dce8"/><path d="M282.08867,179.54637c-6.40835,0.69849 -12.87157,1.17139 -19.38917,1.41872c-1.47783,-0.46298 -3.05402,-0.62092 -4.72906,-0.4729c0.44926,-1.23665 1.23759,-2.18247 2.36453,-2.83744c2.22928,0.15464 4.43587,-0.00331 6.62069,-0.4729c1.37757,-1.13545 1.21962,-1.76583 -0.47291,-1.89163c0,-0.15748 0,-0.31543 0,-0.47291c0.78834,0 1.57619,0 2.36453,0c0.70463,0.84178 1.65044,1.15673 2.83744,0.94581c-1.09951,0.54952 -2.04532,1.02242 -2.83744,1.41872c0.25537,0.59018 0.5708,1.14207 0.94581,1.65517c0.44311,0.32725 0.75807,0.24828 0.94581,-0.23645c3.83007,0.30172 7.61332,0.61714 11.34976,0.94581z" fill="#1e324e"/><path d="M246.62069,159.6843c-2.98404,-0.3263 -5.97895,-0.48426 -8.98522,-0.47291c0.83468,-0.45446 1.78049,-0.61241 2.83743,-0.4729c25.39791,0.99973 50.77738,2.33994 76.13793,4.0197c0.58215,0.55945 0.58215,1.11085 0,1.65517c-23.293,-1.92 -46.62289,-3.49667 -69.99014,-4.72906z" fill="#ccebf4"/><path d="M267.90148,183.32962c-4.9816,0.0506 -9.86813,-0.26483 -14.66009,-0.94581c4.98538,-0.1116 9.87239,0.20334 14.66009,0.94581z" fill="#023c51"/><path d="M263.64532,172.45277c-0.15748,0 -0.31543,0 -0.47291,0c0.39441,-0.59018 1.02479,-0.90562 1.89163,-0.94582c0.63038,0.07898 1.26124,0.15748 1.89162,0.23646c-1.19929,0.08796 -2.30258,0.32442 -3.31034,0.70936z" fill="#a63c3c"/><path d="M292.0197,186.16706c-8.2054,-0.3386 -16.40228,-0.81151 -24.59113,-1.41872c-11.34172,-1.01391 -22.69147,-2.03823 -34.04926,-3.07389c-0.57978,-0.7732 -1.21017,-1.48257 -1.89163,-2.12808c-0.37454,0.56749 -0.37454,1.19787 0,1.89163c-0.31543,-0.15748 -0.63038,-0.31543 -0.94581,-0.4729c0,-0.78833 0,-1.5762 0,-2.36453c0.78833,0 1.5762,0 2.36453,0c-0.0227,1.32036 0.60769,2.18719 1.89163,2.60099c5.96004,0.86447 11.94988,1.25841 17.97045,1.18227c0.15748,0 0.31543,0 0.4729,0c4.79196,0.68098 9.6785,0.99641 14.66009,0.94581c0.63038,0 1.26124,0 1.89163,0c1.25273,0.76091 2.67145,1.15532 4.25616,1.18227c4.72906,0.15748 9.45812,0.31543 14.18719,0.4729c1.39839,0.13194 2.65915,0.52634 3.78325,1.18227z" fill="#166581"/><path d="M260.33498,177.65474c0.16978,-0.88481 0.64268,-1.59417 1.41872,-2.12808c1.56863,-0.2355 3.14483,-0.31448 4.72906,-0.23645c1.69253,0.1258 1.85048,0.75618 0.47291,1.89163c-2.18482,0.46959 -4.39141,0.62754 -6.62069,0.4729z" fill="#486798"/><path d="M280.66995,190.89612c0,0.31543 0,0.63038 0,0.94581c-0.63038,0 -1.26124,0 -1.89163,0c-9.67661,-0.89616 -19.29221,-1.68449 -28.84729,-2.36453c1.21016,0.14282 2.31393,-0.01513 3.31035,-0.4729c9.13372,0.75571 18.27642,1.38609 27.42857,1.89163z" fill="#e2bdbd"/><path d="M266.48276,174.8173c0,0.15748 0,0.31543 0,0.47291c-1.58423,-0.07803 -3.16044,0.00095 -4.72906,0.23645c-0.77604,0.53391 -1.24894,1.24327 -1.41872,2.12808c-1.12694,0.65498 -1.91527,1.60079 -2.36453,2.83744c-0.63038,0 -1.26124,0 -1.89163,0c1.57052,-2.35791 3.46214,-4.40749 5.67487,-6.14778c1.67503,-0.14802 3.25124,0.00993 4.72906,0.4729z" fill="#724f6a"/><path d="M264.59113,169.14243c-3.70948,-0.15133 -7.33525,-0.46676 -10.87685,-0.94581c3.74116,-0.19909 7.36646,0.11586 10.87685,0.94581z" fill="#364051"/><path d="M273.57636,183.32962c-1.26124,0 -2.52202,0 -3.78325,0c-0.63038,0 -1.26124,0 -1.89163,0c-4.78771,-0.74247 -9.67471,-1.05741 -14.66009,-0.94581c-0.15748,0 -0.31543,0 -0.4729,0c-0.19768,-0.34144 -0.51264,-0.57789 -0.94582,-0.70936c-2.60855,-0.08182 -5.13056,-0.31826 -7.5665,-0.70936c4.02775,0.15417 7.96847,-0.00331 11.82266,-0.4729c0.63038,0 1.26124,0 1.89163,0c1.67503,-0.14802 3.25123,0.00993 4.72906,0.4729c-1.11464,-0.07709 -2.21793,0.00142 -3.31034,0.23646c0.31543,0.15748 0.63038,0.31543 0.94581,0.4729c4.52855,0.18444 8.94219,0.73631 13.24138,1.65517z" fill="#131218"/><path d="M312.82758,167.2508c-14.82056,-0.75145 -29.63846,-1.53931 -44.45319,-2.36453c-12.60107,-0.88717 -25.21159,-1.67551 -37.83251,-2.36454c0.45919,-0.69139 0.30171,-1.32178 -0.47291,-1.89163c0.63038,0 1.26125,0 1.89163,0c19.28418,1.74455 38.67334,3.00532 58.16748,3.78325c8.10987,0.7278 16.30691,1.20071 24.59114,1.41872c0,0.4729 0,0.94582 0,1.41872c-0.63052,0 -1.26111,0 -1.89163,0z" fill="#03090d"/><path d="M260.33498,188.05868c-3.47539,-0.02317 -6.94368,-0.18065 -10.40394,-0.4729c-1.89163,-0.31543 -3.78325,-0.63039 -5.67487,-0.94582c2.36453,0 4.72906,0 7.09359,0c2.97174,0.64079 5.96666,1.1137 8.98522,1.41872z" fill="#310303"/><path d="M269.3202,171.50696c0,0.15748 0,0.31543 0,0.47291c-0.61052,-0.11208 -1.08343,0.0454 -1.41872,0.4729c-1.41872,0 -2.83743,0 -4.25615,0c1.00777,-0.38494 2.11105,-0.6214 3.31034,-0.70936c-0.63038,-0.07898 -1.26124,-0.15748 -1.89162,-0.23646c-0.86683,0.0402 -1.49722,0.35563 -1.89163,0.94582c-0.31543,0 -0.63038,0 -0.94581,0c0.0525,-0.29179 0.20997,-0.52823 0.4729,-0.70936c-6.12509,-0.75996 -12.27286,-1.23287 -18.44334,-1.41872c0.36083,-0.44643 0.83373,-0.68287 1.41871,-0.70936c5.89194,0.81009 11.7243,0.96757 17.49754,0.47291c1.21017,-0.14282 2.31393,0.01513 3.31034,0.4729c-0.6493,-0.07424 -1.28016,0.00473 -1.89163,0.23646c1.61687,0.11728 3.19354,0.35373 4.72906,0.70935z" fill="#e99795"/><path d="M259.38916,173.39859c-0.94581,1.26124 -1.89162,2.52201 -2.83743,3.78325c-0.31543,0 -0.63039,0 -0.94582,0c0.53864,-1.18416 0.85407,-2.44492 0.94582,-3.78325c-1.26124,0 -2.52201,0 -3.78325,0c2.15929,-0.61336 4.36634,-0.61336 6.62068,0z" fill="#5e5e77"/><path d="M263.17242,172.45277c-0.47291,0.63038 -0.94581,1.26124 -1.41872,1.89163c-2.21273,1.7403 -4.10435,3.78987 -5.67487,6.14778c-1.36434,0.14471 -2.62558,-0.01277 -3.78325,-0.47291c2.39622,0.28611 4.13037,-0.6597 5.20197,-2.83743c1.73415,-1.41872 3.31034,-2.99491 4.72906,-4.72906c0.31543,0 0.63038,0 0.94581,0z" fill="#9a343d"/><path d="M263.17242,170.08824c-5.77324,0.49466 -11.6056,0.33718 -17.49754,-0.47291c-0.58498,0.02649 -1.05788,0.26293 -1.41871,0.70936c6.17048,0.18585 12.31826,0.65876 18.44334,1.41872c-0.26294,0.18113 -0.42041,0.41757 -0.4729,0.70936c-1.41872,1.73415 -2.99491,3.31034 -4.72906,4.72906c-0.31543,0 -0.63038,0 -0.94581,0c0.94581,-1.26124 1.89162,-2.52201 2.83743,-3.78325c0.80205,-0.08749 1.43244,-0.4819 1.89163,-1.18227c-5.50652,-0.64978 -11.02392,-0.96472 -16.55173,-0.94581c-0.45919,0.70038 -1.08957,1.09477 -1.89163,1.18227c-1.26124,0.78833 -2.52201,1.5762 -3.78325,2.36453c0.37359,-0.61194 0.8465,-1.16382 1.41872,-1.65517c-0.10782,-0.18869 -0.26577,-0.2672 -0.47291,-0.23646c1.32887,-1.24658 2.74759,-2.42884 4.25616,-3.5468c6.30053,0.16835 12.60579,0.40481 18.91625,0.70936z" fill="#bd5956"/><path d="M259.38916,173.39859c-2.25435,-0.61336 -4.46139,-0.61336 -6.62068,0c-3.31035,0 -6.62069,0 -9.93104,0c0,-0.31543 0,-0.63039 0,-0.94582c0.80205,-0.08749 1.43243,-0.48189 1.89163,-1.18227c5.52781,-0.01891 11.04521,0.29603 16.55173,0.94581c-0.45919,0.70038 -1.08958,1.09478 -1.89163,1.18227z" fill="#cac3c4"/><path d="M256.55173,177.18184c-0.81671,1.68449 -2.15646,2.47283 -4.01971,2.36453c-6.05746,-0.5462 -12.12626,-0.86164 -18.2069,-0.94581c0.47952,-0.59823 1.18889,-0.91318 2.12808,-0.94582c6.0584,0.62518 12.12721,0.86164 18.20689,0.70936c0.41663,-0.33482 0.73159,-0.72922 0.94581,-1.18227c0.31543,0 0.63039,0 0.94582,0z" fill="#822933"/><path d="M262.2266,187.11287c-3.61773,-0.30408 -7.2435,-0.46204 -10.87685,-0.47291c-4.46896,-0.77557 -9.04008,-1.09099 -13.71428,-0.94581c-1.5762,0 -3.15287,0 -4.72907,0c0,-0.15748 0,-0.31543 0,-0.47291c-0.97182,-0.50081 -1.60268,-1.28867 -1.89163,-2.36453c-0.15748,-0.63038 -0.31543,-1.26124 -0.4729,-1.89163c0.31543,0.15748 0.63038,0.31543 0.94581,0.4729c0.46723,0.61241 0.94014,1.2428 1.41872,1.89163c2.18767,1.02337 4.55219,1.49627 7.09359,1.41872c7.3168,0.74767 14.72536,1.06262 22.2266,0.94581c0,0.4729 0,0.94582 0,1.41872z" fill="#063e57"/><path d="M255.60591,177.18184c-0.31543,0 -0.63038,0 -0.94581,0c-4.75839,-0.04729 -9.48745,-0.36225 -14.18719,-0.94581c0.8413,-0.5533 1.31421,-1.34116 1.41872,-2.36453c0.31543,-0.15748 0.63039,-0.31543 0.94582,-0.4729c3.31035,0 6.62069,0 9.93104,0c1.26124,0 2.52201,0 3.78325,0c-0.09175,1.33832 -0.40717,2.59909 -0.94582,3.78325z" fill="#406590"/><path d="M267.42857,184.74834c-0.83468,0.45446 -1.7805,0.61241 -2.83744,0.4729c-1.41872,0 -2.83744,0 -4.25616,0c-9.05946,-0.80442 -18.20216,-1.43527 -27.42857,-1.89163c-0.47858,-0.64883 -0.95149,-1.27921 -1.41872,-1.89163c-0.37454,-0.69376 -0.37454,-1.32414 0,-1.89163c0.68146,0.64551 1.31184,1.35488 1.89163,2.12808c11.35779,1.03566 22.70755,2.05998 34.04926,3.07389z" fill="#dcf0f6"/><path d="M257.49754,177.18184c-1.0716,2.17774 -2.80576,3.12355 -5.20197,2.83743c-5.99173,-0.29131 -11.98155,-0.60627 -17.97044,-0.94581c0,-0.15748 0,-0.31543 0,-0.4729c6.08063,0.08417 12.14944,0.39961 18.2069,0.94581c1.86325,0.10829 3.203,-0.68004 4.01971,-2.36453c0.31543,0 0.63038,0 0.94581,0z" fill="#d98f91"/><path d="M251.34976,186.63996c-2.36453,0 -4.72906,0 -7.09359,0c-2.29502,-0.14802 -4.50207,-0.46298 -6.62069,-0.94581c4.67421,-0.14518 9.24532,0.17024 13.71428,0.94581z" fill="#13141a"/><path d="M266.00985,167.2508c-0.11255,0.90042 -0.58546,1.53127 -1.41872,1.89162c-3.51038,-0.82995 -7.13569,-1.1449 -10.87685,-0.94581c-5.83661,-0.03452 -11.66896,-0.192 -17.49753,-0.47291c-1.27969,0.49845 -2.2255,0.02553 -2.83744,-1.41872c-1.48587,-0.31543 -2.90459,-0.63085 -4.25615,-0.94581c12.30455,0.46156 24.60011,1.09194 36.8867,1.89163z" fill="#3f6088"/><path d="M268.37439,164.88627c-0.31543,0.4729 -0.63038,0.94581 -0.94581,1.41871c-0.31543,0.15748 -0.63038,0.31543 -0.94581,0.47291c-1.22341,-0.62234 -2.64213,-0.93777 -4.25616,-0.94581c-11.51054,-0.60816 -23.01777,-1.23901 -34.52216,-1.89163c-0.4275,-0.33529 -0.58498,-0.8082 -0.4729,-1.41872c1.10329,0 2.20705,0 3.31034,0c12.62093,0.68902 25.23145,1.47737 37.83251,2.36454z" fill="#446d9b"/><path d="M254.6601,177.18184c-4.48836,0.54763 -9.05994,0.6266 -13.71428,0.23645c-0.35563,-0.31732 -0.51358,-0.71125 -0.47291,-1.18227c4.69975,0.58356 9.42881,0.89852 14.18719,0.94581z" fill="#27375c"/><path d="M252.76848,182.38381c-6.02057,0.07614 -12.01041,-0.31779 -17.97045,-1.18227c-1.28394,-0.41379 -1.91432,-1.28063 -1.89163,-2.60099c-0.78833,0 -1.5762,0 -2.36453,0c0,0.78833 0,1.5762 0,2.36453c-0.61478,-1.19361 -0.61478,-2.45486 0,-3.78325c0.32299,-0.17166 0.63842,-0.32914 0.94581,-0.47291c0.51216,0.01845 0.98507,0.1764 1.41872,0.47291c0.33482,1.06168 0.80773,2.00749 1.41872,2.83743c3.31791,0.24591 6.62825,0.56134 9.93104,0.94582c2.43594,0.3911 4.95795,0.62754 7.5665,0.70936c0.43318,0.13147 0.74814,0.36792 0.94582,0.70936z" fill="#193c58"/><path d="M272.63054,162.52174c-13.53127,-1.10235 -27.08807,-1.7332 -40.66994,-1.89163c-1.40453,-0.54526 -2.66577,-1.3336 -3.78325,-2.36453c3.13159,0.48804 6.28398,0.80347 9.45813,0.94581c3.00627,-0.01135 6.00118,0.1466 8.98522,0.47291c8.18932,0.95007 16.54416,1.65942 25.06404,2.12807c0.43318,0.13147 0.74813,0.36792 0.94581,0.70936z" fill="#0e5a78"/><path d="M242.83744,172.45277c0,0.31543 0,0.63039 0,0.94582c-0.31543,0.15748 -0.63039,0.31543 -0.94582,0.4729c-0.71409,0.63181 -1.50242,1.18368 -2.36453,1.65517c-4.41222,0.07898 -8.82632,0.00047 -13.24138,-0.23645c-2.77738,-0.0454 -5.45733,-0.36083 -8.0394,-0.94581c6.32417,-0.05627 12.62944,0.25868 18.91625,0.94581c0.73064,-0.0052 1.36103,-0.16268 1.89163,-0.47291c1.26124,-0.78833 2.52201,-1.5762 3.78325,-2.36453z" fill="#a63e4c"/><path d="M260.33498,185.22124c-6.77627,-0.22321 -13.55491,-0.38069 -20.33497,-0.4729c-2.5414,0.07755 -4.90593,-0.39535 -7.09359,-1.41872c9.22641,0.45636 18.3691,1.08721 27.42857,1.89163z" fill="#3483a0"/><path d="M257.49754,157.79268c0,0.15748 0,0.31543 0,0.4729c-8.04272,-0.0298 -16.08213,-0.18727 -24.11823,-0.4729c-1.5762,0 -3.15286,0 -4.72906,0c0.21422,-0.45305 0.52918,-0.84745 0.94581,-1.18227c0.94582,-0.07898 1.89162,-0.15747 2.83744,-0.23645c8.18648,0.6824 16.38384,1.15531 24.59113,1.41872c0.15748,0 0.31543,0 0.47291,0z" fill="#034b65"/><path d="M308.09852,164.88627c-5.98661,-0.26719 -11.97673,-0.42468 -17.97044,-0.47291c-19.49415,-0.77793 -38.88331,-2.0387 -58.16748,-3.78325c13.58187,0.15842 27.13867,0.78928 40.66994,1.89163c11.8813,0.82664 23.70411,1.61498 35.46798,2.36454z" fill="#022d3f"/><path d="M256.07882,180.49218c-3.85419,0.46959 -7.79491,0.62707 -11.82266,0.4729c-3.30278,-0.38448 -6.61312,-0.69991 -9.93104,-0.94582c0,-0.31543 0,-0.63038 0,-0.94581c5.98889,0.33954 11.97871,0.6545 17.97044,0.94581c1.15768,0.46014 2.41892,0.61762 3.78325,0.47291z" fill="#6b1318"/><path d="M280.66995,191.84193c-0.26388,0.61005 -0.73679,1.00398 -1.41872,1.18227c-20.02947,-0.94628 -40.0495,-2.20753 -60.05911,-3.78325c-3.21435,-0.37501 -4.31764,-2.03019 -3.31035,-4.96552c0.15748,0 0.31543,0 0.4729,0c0,0.15748 0,0.31543 0,0.47291c-0.25679,0.02838 -0.41427,0.18585 -0.4729,0.4729c0.28044,0.89001 0.59587,1.75684 0.94582,2.60098c1.90628,0.22747 3.79791,0.54243 5.67487,0.94582c17.20576,1.08012 34.38834,2.26238 51.5468,3.5468c1.66368,-0.00095 3.23989,-0.15842 4.72906,-0.47291c0.63038,0 1.26124,0 1.89163,0z" fill="#430101"/><path d="M240.47291,158.73849c-1.05695,-0.13951 -2.00276,0.01844 -2.83743,0.4729c-3.17415,-0.14235 -6.32655,-0.45777 -9.45813,-0.94581c0,-0.31543 0.15748,-0.4729 0.47291,-0.4729c1.5762,0 3.15286,0 4.72906,0c2.36453,0.31543 4.72907,0.63038 7.0936,0.94581z" fill="#96c0d2"/><path d="M239.5271,172.92568c-0.05249,0.29179 -0.20997,0.52823 -0.4729,0.70936c-1.35583,0.3788 -2.61707,0.29982 -3.78325,-0.23645c0.707,-0.23125 1.33785,-0.54621 1.89163,-0.94582c0.76469,0.25442 1.55302,0.4119 2.36453,0.4729z" fill="#7c626f"/><path d="M266.48276,166.7779c0,0.15748 0,0.31543 0,0.47291c-0.15748,0 -0.31543,0 -0.47291,0c-12.28658,-0.79969 -24.58214,-1.43007 -36.8867,-1.89163c-0.63038,-0.31543 -1.10329,-0.78834 -1.41872,-1.41872c11.50439,0.65261 23.01163,1.28347 34.52217,1.89163c1.61403,0.00804 3.03275,0.32347 4.25616,0.94581z" fill="#84a8d0"/><path d="M255.60591,177.18184c-0.21422,0.45305 -0.52918,0.84744 -0.94581,1.18227c-6.07969,0.15228 -12.14849,-0.08418 -18.20689,-0.70936c-0.93919,0.03263 -1.64856,0.34759 -2.12808,0.94582c0,0.15748 0,0.31543 0,0.4729c0,0.31543 0,0.63038 0,0.94581c-0.611,-0.82995 -1.0839,-1.77576 -1.41872,-2.83743c-0.43365,-0.29651 -0.90656,-0.45446 -1.41872,-0.47291c-0.05249,-0.29179 -0.20997,-0.52823 -0.4729,-0.70936c-1.667,-0.08465 -3.24366,-0.32111 -4.72906,-0.70936c4.41505,0.23693 8.82916,0.31543 13.24138,0.23645c0.86211,-0.47149 1.65044,-1.02336 2.36453,-1.65517c-0.10451,1.02337 -0.57742,1.81123 -1.41872,2.36453c-0.04067,0.47101 0.11728,0.86495 0.47291,1.18227c4.65435,0.39015 9.22593,0.31117 13.71428,-0.23645c0.31543,0 0.63038,0 0.94581,0z" fill="#533853"/><path d="M278.77833,191.84193c-1.48918,0.31448 -3.06538,0.47196 -4.72906,0.47291c-17.15846,-1.28441 -34.34104,-2.46668 -51.54679,-3.5468c-1.87697,-0.40339 -3.76859,-0.71834 -5.67487,-0.94582c-0.34995,-0.84414 -0.66538,-1.71097 -0.94582,-2.60098c0.05864,-0.28706 0.21612,-0.44453 0.4729,-0.4729c0.40717,0.8919 0.88008,1.75921 1.41872,2.60098c10.71559,0.84555 21.43448,1.55492 32.15764,2.12808c9.55507,0.68004 19.17068,1.46837 28.84729,2.36453z" fill="#751614"/><path d="M234.32513,171.03405c-0.58546,0.1466 -0.58546,0.38306 0,0.70936c-0.2809,0.21943 -0.59634,0.29841 -0.94582,0.23646c-0.80725,-0.6493 -1.43764,-1.43717 -1.89163,-2.36454c-0.51499,-0.76469 -1.30333,-1.15862 -2.36453,-1.18227c-3.31035,-0.15748 -6.62069,-0.31543 -9.93104,-0.4729c2.60855,-0.08182 5.13057,-0.31826 7.56651,-0.70936c1.5762,0 3.15286,0 4.72906,0c1.1747,1.08768 2.12052,2.34892 2.83744,3.78325z" fill="#be6870"/><path d="M257.02463,157.79268c-8.20729,-0.26341 -16.40465,-0.73631 -24.59113,-1.41872c-0.94582,0.07898 -1.89162,0.15747 -2.83744,0.23645c-0.41663,0.33482 -0.73159,0.72922 -0.94581,1.18227c-0.31543,0 -0.47291,0.15748 -0.47291,0.4729c1.11748,1.03093 2.37873,1.81927 3.78325,2.36453c-0.63038,0 -1.26125,0 -1.89163,0c-1.55113,-0.64551 -3.1278,-1.11842 -4.72906,-1.41872c0.6493,0.07424 1.28016,-0.00473 1.89163,-0.23645c0.42609,-1.21584 1.05647,-2.31913 1.89163,-3.31034c1.10329,-0.07898 2.20705,-0.15748 3.31034,-0.23646c7.70506,0.82238 15.42904,1.37379 23.17241,1.65517c0.58498,0.10971 1.05789,0.34617 1.41872,0.70936z" fill="#061a25"/><path d="M232.90641,185.22124c-4.02538,-0.14187 -7.96611,-0.4573 -11.82266,-0.94581c2.71921,-0.19579 4.45336,-1.6145 5.20197,-4.25616c0.3963,-0.16173 0.55425,-0.47669 0.47291,-0.94581c0.84555,-0.13478 1.63389,0.0227 2.36453,0.4729c0.28375,1.34731 0.91413,2.4506 1.89162,3.31035c0.28895,1.07586 0.9198,1.86372 1.89163,2.36453z" fill="#06070a"/><path d="M233.37931,171.97987c-0.03642,0.59114 -0.35184,0.98506 -0.94581,1.18227c-4.41789,0.21895 -8.83153,0.13998 -13.24138,-0.23646c0,-0.15748 0,-0.31543 0,-0.4729c2.07181,0.06053 4.12138,-0.09695 6.14778,-0.4729c1.91763,0.15322 3.80926,-0.00426 5.67487,-0.47291c-0.15748,-0.31543 -0.31543,-0.63038 -0.4729,-0.94581c-1.70577,-0.4677 -3.43992,-0.62565 -5.20197,-0.4729c-0.72213,0.03452 -1.19504,-0.28091 -1.41872,-0.94582c2.56646,-0.13336 5.08847,0.02411 7.5665,0.4729c0.45399,0.92737 1.08437,1.71524 1.89163,2.36454z" fill="#67637c"/><path d="M249.93104,187.58578c-9.65202,-0.86731 -19.2681,-1.65565 -28.84729,-2.36453c3.94593,0.05297 7.88713,0.21044 11.82266,0.47291c1.5762,0 3.15287,0 4.72907,0c2.11862,0.48283 4.32567,0.79779 6.62069,0.94581c1.89163,0.31543 3.78325,0.63039 5.67487,0.94582z" fill="#460102"/><path d="M231.48769,169.61533c-2.47803,-0.44879 -5.00003,-0.60627 -7.5665,-0.4729c-1.52654,-0.43223 -3.10274,-0.58971 -4.72906,-0.4729c-0.80442,-0.33623 -1.27732,-0.9671 -1.41872,-1.89163c2.99728,0.12626 5.9922,0.28374 8.98523,0.47291c-2.43594,0.3911 -4.95795,0.62754 -7.56651,0.70936c3.31035,0.15748 6.62069,0.31543 9.93104,0.4729c1.0612,0.02364 1.84953,0.41757 2.36453,1.18227z" fill="#904653"/><path d="M239.05419,174.8173c-6.92288,-0.63795 -13.85899,-1.11085 -20.80788,-1.41871c0,-0.15748 0,-0.31543 0,-0.47291c0.31543,0 0.63038,0 0.94581,0c4.40985,0.37643 8.82349,0.45541 13.24138,0.23646c0.59397,-0.1972 0.90939,-0.59113 0.94581,-1.18227c0.34948,0.06195 0.66491,-0.01703 0.94582,-0.23646c-0.58546,-0.3263 -0.58546,-0.56276 0,-0.70936c1.23239,0.63843 1.23239,1.34779 0,2.12808c0.2809,0.21943 0.59633,0.29841 0.94581,0.23646c1.16619,0.53627 2.42743,0.61525 3.78325,0.23645c0.26293,-0.18113 0.42041,-0.41757 0.4729,-0.70936c0.15748,0 0.31543,0 0.4729,0c0.20713,-0.03074 0.36508,0.04776 0.47291,0.23646c-0.57221,0.49135 -1.04512,1.04323 -1.41872,1.65517z" fill="#923b46"/><path d="M237.16257,172.45277c-0.55378,0.39961 -1.18463,0.71457 -1.89163,0.94582c-0.34948,0.06195 -0.66491,-0.01703 -0.94581,-0.23646c1.23239,-0.78029 1.23239,-1.48965 0,-2.12808c-0.71693,-1.43433 -1.66274,-2.69556 -2.83744,-3.78325c-0.05249,-0.29179 -0.20997,-0.52823 -0.4729,-0.70936c-1.43953,-0.17166 -2.85824,-0.40812 -4.25615,-0.70936c0,-0.31543 -0.15748,-0.4729 -0.47291,-0.4729c-0.85217,-1.45371 -1.32509,-3.03039 -1.41872,-4.72907c-0.05249,-0.29179 -0.20997,-0.52823 -0.4729,-0.70936c-3.08051,-0.38779 -6.07542,-0.30881 -8.98522,0.23645c-0.65498,-0.37927 -0.576,-0.6947 0.23646,-0.94581c0.83515,-0.34664 1.70199,-0.50459 2.60099,-0.4729c2.40946,-0.13194 4.77399,0.02601 7.09359,0.4729c1.60126,0.3003 3.17793,0.7732 4.72906,1.41872c0.77462,0.56985 0.9321,1.20023 0.47291,1.89163c-1.10329,0 -2.20705,0 -3.31034,0c-0.11208,0.61052 0.0454,1.08343 0.4729,1.41872c0.31543,0.63038 0.78834,1.10329 1.41872,1.41872c1.35156,0.31495 2.77028,0.63038 4.25615,0.94581c0.61194,1.44425 1.55776,1.91717 2.83744,1.41872c-0.21422,0.45305 -0.52919,0.84744 -0.94582,1.18227c0.59208,1.24516 1.22294,2.42743 1.89163,3.5468z" fill="#202f49"/><path d="M231.48769,176.70893c-0.30739,0.14377 -0.62282,0.30124 -0.94581,0.47291c-0.61478,1.3284 -0.61478,2.58964 0,3.78325c0.15748,0.63038 0.31543,1.26124 0.4729,1.89163c-0.9775,-0.85975 -1.60788,-1.96304 -1.89162,-3.31035c-0.73064,-0.45021 -1.51898,-0.60769 -2.36453,-0.4729c-4.24812,-0.12816 -8.3468,-0.28563 -12.29557,-0.4729c-1.14159,-0.6039 -1.22057,-1.39176 -0.23645,-2.36453c0.98979,-1.44804 2.32954,-2.39385 4.01971,-2.83743c0,0.31543 0,0.63038 0,0.94581c2.58207,0.58498 5.26202,0.90041 8.0394,0.94581c1.4854,0.38825 3.06207,0.62471 4.72906,0.70936c0.26293,0.18113 0.42041,0.41757 0.4729,0.70936z" fill="#222a44"/><path d="M225.33991,171.97987c-0.63038,-0.63038 -0.63038,-1.26124 0,-1.89163c1.76205,-0.15275 3.4962,0.0052 5.20197,0.4729c0.15748,0.31543 0.31543,0.63038 0.4729,0.94581c-1.86561,0.46865 -3.75724,0.62613 -5.67487,0.47291z" fill="#1b2b47"/><path d="M231.48769,167.2508c-1.5762,0 -3.15286,0 -4.72906,0c-2.99302,-0.18917 -5.98795,-0.34664 -8.98523,-0.47291c0,-0.15748 0,-0.31543 0,-0.47291c3.08429,0.15275 6.07922,-0.00473 8.98523,-0.4729c1.39791,0.30124 2.81663,0.5377 4.25615,0.70936c0.26293,0.18113 0.42041,0.41757 0.4729,0.70936z" fill="#796681"/><path d="M252.29557,189.0045c-11.33698,-1.12883 -22.68673,-2.15314 -34.04925,-3.07389c-0.35563,-0.31732 -0.51358,-0.71125 -0.47291,-1.18227c0.33529,-0.4275 0.8082,-0.58499 1.41872,-0.47291c0.47952,0.55519 1.10991,0.87015 1.89163,0.94581c9.57919,0.70889 19.19527,1.49722 28.84729,2.36453c0.74341,0.56134 1.53174,1.03424 2.36453,1.41872z" fill="#6d0b0c"/><path d="M239.05419,174.8173c-0.5306,0.31023 -1.16099,0.46771 -1.89163,0.47291c-6.28681,-0.68714 -12.59208,-1.00209 -18.91625,-0.94581c0,-0.31543 0,-0.63038 0,-0.94581c6.94888,0.30786 13.885,0.78077 20.80788,1.41871z" fill="#e48e95"/><path d="M232.90641,185.22124c0,0.15748 0,0.31543 0,0.47291c-3.93553,-0.26246 -7.87673,-0.41994 -11.82266,-0.47291c-0.78171,-0.07566 -1.4121,-0.39062 -1.89163,-0.94581c0.63038,0 1.26124,0 1.89163,0c3.85655,0.48851 7.79728,0.80394 11.82266,0.94581z" fill="#2c0503"/><path d="M226.28572,165.35918c0.31543,0 0.47291,0.15748 0.47291,0.4729c-2.90601,0.46818 -5.90093,0.62565 -8.98523,0.4729c-0.47101,0.04067 -0.86495,-0.11728 -1.18227,-0.4729c-0.44359,-0.94014 -0.83799,-1.88594 -1.18227,-2.83743c2.52721,-0.0785 5.04922,0.00047 7.5665,0.23645c1.56816,0.21517 2.59247,1.08201 3.07389,2.60099c0.18869,-0.10782 0.26719,-0.26577 0.23645,-0.4729z" fill="#466494"/><path d="M225.33991,170.08824c-0.63038,0.63038 -0.63038,1.26124 0,1.89163c-2.02641,0.37596 -4.07598,0.53343 -6.14778,0.4729c0,-1.26124 0,-2.52201 0,-3.78325c1.62633,-0.11681 3.20252,0.04067 4.72906,0.4729c0.22368,0.66491 0.69659,0.98033 1.41872,0.94582z" fill="#495b87"/><path d="M253.24138,189.0045c-0.99642,0.45777 -2.10018,0.61572 -3.31035,0.4729c-10.72315,-0.57316 -21.44205,-1.28253 -32.15763,-2.12808c-0.53864,-0.84178 -1.01155,-1.70908 -1.41872,-2.60098c0,-0.15748 0,-0.31543 0,-0.47291c0.52445,0.02695 0.99736,0.18443 1.41872,0.47291c-0.04067,0.47101 0.11729,0.86495 0.47291,1.18227c11.36252,0.92075 22.71227,1.94506 34.04925,3.07389c0.31543,0 0.63039,0 0.94582,0z" fill="#edd3d1"/><path d="M226.28572,165.35918c0.03074,0.20713 -0.04776,0.36508 -0.23645,0.4729c-0.48142,-1.51898 -1.50573,-2.38582 -3.07389,-2.60099c-2.51728,-0.23598 -5.03929,-0.31495 -7.5665,-0.23645c0,-0.4729 0,-0.94582 0,-1.41872c3.28717,0.26766 6.44003,-0.04776 9.45812,-0.94582c0.09364,1.69868 0.56655,3.27535 1.41872,4.72907z" fill="#86b0d4"/><path d="M224.867,160.63011c-3.01809,0.89805 -6.17095,1.21348 -9.45812,0.94582c0,-0.4729 0,-0.94582 0,-1.41872c2.9098,-0.54526 5.90471,-0.62424 8.98522,-0.23645c0.26293,0.18113 0.42041,0.41757 0.4729,0.70936z" fill="#446a9a"/><path d="M226.75863,179.07346c0.08134,0.46912 -0.07662,0.78408 -0.47291,0.94581c-0.52067,-0.51925 -1.15106,-0.59822 -1.89163,-0.23645c-0.67625,1.9077 -1.30664,1.98667 -1.89163,0.23645c-0.43744,0.40528 -0.75287,0.87819 -0.94581,1.41872c-1.58235,0.86258 -3.31649,1.17754 -5.20197,0.94582c-1.00777,-0.38494 -2.11105,-0.6214 -3.31034,-0.70936c4.67941,-0.4171 4.83688,-1.12647 0.4729,-2.12808c0.15748,-0.4729 0.47291,-0.78833 0.94581,-0.94581c3.94877,0.18727 8.04745,0.34474 12.29557,0.4729z" fill="#454b51"/><path d="M219.19212,168.66952c0,1.26124 0,2.52201 0,3.78325c0,0.15748 0,0.31543 0,0.4729c-0.31543,0 -0.63038,0 -0.94581,0c0,-0.31543 -0.15748,-0.4729 -0.47291,-0.4729c0.07803,-1.58424 -0.00095,-3.16043 -0.23645,-4.72906c-1.29245,-1.21159 -2.47472,-2.47283 -3.5468,-3.78325c0,-0.31543 0,-0.63038 0,-0.94581c0,-1.41872 0,-2.83744 0,-4.25616c-1.77718,0.16457 -3.51085,0.48 -5.20197,0.94581c-0.28848,-0.42136 -0.44595,-0.89427 -0.4729,-1.41872c1.24327,0.57411 2.50451,0.57411 3.78325,0c1.11653,-0.08229 2.21982,-0.23976 3.31034,-0.4729c1.18699,-0.21091 2.13281,0.10404 2.83744,0.94581c-0.899,-0.03169 -1.76583,0.12626 -2.60099,0.4729c-0.81245,0.25111 -0.89143,0.56654 -0.23646,0.94581c0,0.4729 0,0.94582 0,1.41872c0,0.4729 0,0.94582 0,1.41872c0.34428,0.95149 0.73868,1.89729 1.18227,2.83743c0.31732,0.35563 0.71125,0.51358 1.18227,0.4729c0,0.15748 0,0.31543 0,0.47291c0.1414,0.92453 0.61431,1.55539 1.41872,1.89163z" fill="#535864"/><path d="M216.35468,182.38381c1.88548,0.23173 3.61963,-0.08324 5.20197,-0.94582c0.6091,0.94155 0.37265,1.72989 -0.70936,2.36453c-2.42601,-0.48189 -4.86952,-0.87582 -7.33005,-1.18227c0.93304,-0.23409 1.87885,-0.31306 2.83743,-0.23645z" fill="#a6a7a8"/><path d="M226.28572,180.01927c-0.74861,2.64166 -2.48276,4.06037 -5.20197,4.25616c-0.63038,0 -1.26124,0 -1.89163,0c-0.61052,-0.11208 -1.08343,0.0454 -1.41872,0.47291c-0.42136,-0.28848 -0.89427,-0.44595 -1.41872,-0.47291c-0.15748,0 -0.31543,0 -0.4729,0c-0.99642,-0.45777 -2.10018,-0.61572 -3.31034,-0.4729c0.11208,-0.61052 -0.0454,-1.08343 -0.4729,-1.41872c0.05438,-1.1572 0.52729,-2.10302 1.41872,-2.83744c4.36398,1.00161 4.2065,1.71098 -0.4729,2.12808c1.19929,0.08796 2.30257,0.32442 3.31034,0.70936c-0.95858,-0.07661 -1.90439,0.00236 -2.83743,0.23645c2.46053,0.30644 4.90404,0.70038 7.33005,1.18227c1.08201,-0.63464 1.31846,-1.42298 0.70936,-2.36453c0.19295,-0.54053 0.50837,-1.01344 0.94581,-1.41872c0.58498,1.75023 1.21537,1.67126 1.89163,-0.23645c0.74057,-0.36177 1.37096,-0.2828 1.89163,0.23645z" fill="#646367"/><path d="M215.40887,157.79268c-1.09052,0.23315 -2.19381,0.39062 -3.31034,0.4729c-0.63038,-1.10329 -1.26124,-2.20705 -1.89163,-3.31034c2.39622,-0.28611 4.13036,0.6597 5.20197,2.83744z" fill="#192e4b"/><path d="M217.7734,172.45277c-1.19125,0.73537 -2.53099,1.0508 -4.0197,0.94582c-1.11653,-0.00189 -2.14085,-0.15938 -3.07389,-0.47291c0,-0.4729 0,-0.94582 0,-1.41872c1.26124,0 2.52201,0 3.78325,0c0.56276,-3.15948 -0.69848,-4.5782 -3.78325,-4.25615c-0.44501,-1.07444 -1.07539,-2.02026 -1.89163,-2.83744c1.83062,0.14897 3.56477,-0.00851 5.20197,-0.4729c1.07208,1.31043 2.25435,2.57166 3.5468,3.78325c0.2355,1.56863 0.31448,3.14483 0.23645,4.72906z" fill="#b8bec2"/><path d="M213.99015,162.99465c0,0.31543 0,0.63038 0,0.94581c-1.6372,0.46439 -3.37135,0.62187 -5.20197,0.4729c-0.40623,-0.96757 -1.11559,-1.59795 -2.12808,-1.89163c-2.10963,-0.39961 -4.23771,-0.55708 -6.38423,-0.4729c-0.94582,0 -1.89162,0 -2.83744,0c-1.5081,-0.31495 -3.08477,-0.63039 -4.72906,-0.94582c2.34373,-0.47007 4.70825,-0.62754 7.09359,-0.4729c2.74758,0.46818 5.58503,0.62565 8.51232,0.4729c1.73415,0 3.46782,0 5.20197,0c-0.12674,0.75618 0.03121,1.38657 0.4729,1.89163z" fill="#f1f4f4"/><path d="M210.67981,172.92568c-0.71834,1.19219 -1.50668,2.37446 -2.36453,3.5468c-1.20071,0.37643 -2.304,0.29746 -3.31035,-0.23645c0.97088,0.04635 1.75921,-0.26908 2.36453,-0.94581c0.31543,0 0.47291,-0.15748 0.47291,-0.47291c0.76658,-0.8342 1.39696,-1.78001 1.89163,-2.83743c0.95953,-1.33029 1.11747,-2.749 0.4729,-4.25616c0.31543,0 0.4729,-0.15748 0.4729,-0.4729c3.08477,-0.32205 4.34601,1.09667 3.78325,4.25615c-1.26124,0 -2.52201,0 -3.78325,0c0,0.4729 0,0.94582 0,1.41872z" fill="#395d71"/><path d="M213.99015,162.99465c-0.4417,-0.50507 -0.59965,-1.13546 -0.4729,-1.89163c-1.73415,0 -3.46782,0 -5.20197,0c0.28848,-0.42136 0.44595,-0.89426 0.4729,-1.41871c1.69111,-0.46581 3.42479,-0.78124 5.20197,-0.94581c0,1.41872 0,2.83744 0,4.25616z" fill="#c4caca"/><path d="M209.734,171.97987c-0.49466,1.05742 -1.12504,2.00323 -1.89163,2.83743c0.05533,-0.93824 -0.2601,-1.7261 -0.94582,-2.36453c0.95527,-0.14802 1.90109,-0.3055 2.83744,-0.4729z" fill="#11a7d0"/><path d="M210.67981,167.2508c0,0.31543 -0.15748,0.4729 -0.4729,0.4729c-1.37711,-1.08863 -2.4804,-2.42885 -3.31035,-4.01971c-3.93789,-0.23646 -7.87862,-0.31495 -11.82266,-0.23645c1.60362,-0.76847 3.33777,-1.24138 5.20197,-1.41872c2.14652,-0.08417 4.2746,0.0733 6.38423,0.4729c1.0125,0.29368 1.72186,0.92406 2.12808,1.89163c0.81624,0.81718 1.44662,1.763 1.89163,2.83744z" fill="#538291"/><path d="M208.78818,159.6843c-0.37312,0.13384 -0.68855,0.37028 -0.94581,0.70936c-2.51728,0.23598 -5.0393,0.31495 -7.56651,0.23645c0,-0.4729 0,-0.94581 0,-1.41872c2.14321,0.15039 4.19279,-0.00709 6.14778,-0.4729c0,-0.31543 0.15748,-0.47291 0.4729,-0.47291c0.4729,0 0.94582,0 1.41872,0c0.02695,0.52445 0.18443,0.99736 0.4729,1.41872z" fill="#c1c7c5"/><path d="M209.734,171.97987c-0.93635,0.16741 -1.88217,0.32488 -2.83744,0.4729c0.68571,0.63843 1.00115,1.42629 0.94582,2.36453c0,0.31543 -0.15748,0.47291 -0.47291,0.47291c-3.01194,0.07235 -6.00733,-0.08512 -8.98522,-0.47291c-0.061,-0.81151 -0.21848,-1.59984 -0.4729,-2.36453c2.2884,-0.35941 4.65292,-0.43839 7.09359,-0.23646c-0.11917,-1.16714 -0.27712,-2.3494 -0.4729,-3.5468c-2.03114,-0.54905 -4.08071,-0.62802 -6.14778,-0.23646c-0.3613,0.97844 -0.59776,2.00323 -0.70936,3.07389c-0.52492,0.72686 -1.23428,1.04182 -2.12808,0.94582c-0.82853,-1.76252 -1.14396,-3.65415 -0.94581,-5.67488c3.4035,0.60721 6.79282,0.60721 10.16748,0c0.81246,1.13356 1.36434,2.3948 1.65517,3.78325c0.38211,-0.14566 0.69753,-0.38211 0.94581,-0.70936c-0.42656,-1.04134 -0.89947,-2.06565 -1.41872,-3.07389c-4.0041,-0.91271 -8.10278,-1.22814 -12.29557,-0.94581c0.38683,-0.42987 1.1747,-0.66633 2.36453,-0.70936c-0.6422,-0.4417 -1.27307,-0.8361 -1.89163,-1.18227c0.31543,-0.15748 0.63038,-0.31543 0.94581,-0.4729c3.94404,-0.0785 7.88477,-0.00001 11.82266,0.23645c0.82995,1.59086 1.93324,2.93108 3.31035,4.01971c0.64457,1.50716 0.48662,2.92587 -0.4729,4.25616z" fill="#46e2ef"/><path d="M208.78818,155.42814c0.06195,0.41427 -0.09553,0.7297 -0.4729,0.94582c-2.96654,-0.45399 -5.96193,-0.61147 -8.98522,-0.47291c3.06396,-0.46865 6.21683,-0.62613 9.45812,-0.4729z" fill="#87add3"/><path d="M208.78818,159.6843c-0.02695,0.52445 -0.18443,0.99735 -0.4729,1.41871c-2.92729,0.15275 -5.76473,-0.00473 -8.51232,-0.4729c0,-0.63038 0,-1.26124 0,-1.89162c2.20705,0 4.41363,0 6.62069,0c-1.95499,0.46581 -4.00457,0.62329 -6.14778,0.4729c0,0.4729 0,0.94581 0,1.41872c2.52721,0.0785 5.04923,-0.00047 7.56651,-0.23645c0.25726,-0.33908 0.57269,-0.57552 0.94581,-0.70936z" fill="#7d8586"/><path d="M218.24631,172.92568c0,0.15748 0,0.31543 0,0.47291c-1.69017,0.44359 -3.02991,1.3894 -4.01971,2.83743c-0.98412,0.97277 -0.90514,1.76063 0.23645,2.36453c-0.4729,0.15748 -0.78833,0.4729 -0.94581,0.94581c-1.39791,0.30124 -2.81663,0.5377 -4.25616,0.70936c2.88756,0.23882 2.88756,0.94818 0,2.12808c-4.88559,-0.53722 -9.77261,-1.08911 -14.66009,-1.65518c-0.65261,-0.62613 -0.81056,-1.25651 -0.47291,-1.89163c-2.60997,-2.37399 -4.9745,-4.97498 -7.0936,-7.80295c1.11653,0.08229 2.21982,0.23976 3.31034,0.4729c-0.0785,-2.05525 0.00047,-4.10435 0.23646,-6.14778c0.49418,-0.41285 0.88811,-0.88576 1.18227,-1.41872c1.48162,-1.69206 3.37324,-2.32245 5.67488,-1.89163c0.94582,0 1.89162,0 2.83744,0c-1.86419,0.17734 -3.59834,0.65025 -5.20197,1.41872c-0.31543,0.15748 -0.63038,0.31543 -0.94581,0.4729c-2.66672,1.44567 -3.53355,3.65273 -2.60098,6.62069c0.44879,0.75334 1.00019,1.38372 1.65517,1.89163c0.72024,1.35441 1.824,2.14274 3.31034,2.36453c-0.19768,0.34144 -0.51263,0.57789 -0.94581,0.70936c3.16422,0.15842 6.31661,0.39488 9.45813,0.70936c1.00635,0.53391 2.10964,0.61289 3.31035,0.23645c0.85785,-1.17234 1.64619,-2.3546 2.36453,-3.5468c0.93304,0.31354 1.95736,0.47102 3.07389,0.47291c1.48871,0.10498 2.82845,-0.21045 4.0197,-0.94582c0.31543,0 0.47291,0.15748 0.47291,0.4729z" fill="#616c77"/><path d="M194.60099,166.7779c-0.4729,-0.15748 -0.78834,-0.47291 -0.94582,-0.94581c4.19279,-0.28232 8.29147,0.0331 12.29557,0.94581c0.51925,1.00824 0.99216,2.03255 1.41872,3.07389c-0.24828,0.32725 -0.5637,0.5637 -0.94581,0.70936c-0.29083,-1.38845 -0.84272,-2.6497 -1.65517,-3.78325c-3.37466,0.60721 -6.76398,0.60721 -10.16748,0z" fill="#abf5f9"/><path d="M197.91134,172.45277c-0.88764,0.50648 -1.20307,1.13734 -0.94581,1.89163c-0.67815,-0.51452 -1.15106,-1.14538 -1.41872,-1.89163c0.8938,0.096 1.60315,-0.21896 2.12808,-0.94582c0.1116,-1.07066 0.34806,-2.09545 0.70936,-3.07389c2.06707,-0.39157 4.11665,-0.31259 6.14778,0.23646c0.19579,1.1974 0.35374,2.37966 0.4729,3.5468c-2.44067,-0.20193 -4.8052,-0.12295 -7.09359,0.23646z" fill="#93f4f6"/><path d="M207.36946,175.29021c-0.60532,0.67673 -1.39365,0.99216 -2.36453,0.94581c-3.14151,-0.31448 -6.29391,-0.55094 -9.45813,-0.70936c0.43318,-0.13147 0.74814,-0.36792 0.94581,-0.70936c0.63038,0 1.26124,0 1.89163,0c2.97789,0.38779 5.97328,0.54526 8.98522,0.47291z" fill="#3b8ea6"/><path d="M209.26109,154.95524c-0.31543,0 -0.4729,0.15748 -0.4729,0.4729c-3.2413,-0.15322 -6.39416,0.00426 -9.45812,0.4729c-0.43508,0.26814 -0.59303,-0.04681 -0.47291,-0.94581c-2.99917,0.0785 -5.99408,0 -8.98522,-0.23646c-1.04417,-0.09033 -1.98999,-0.32678 -2.83744,-0.70936c0.87109,-0.10546 1.73793,-0.26341 2.60099,-0.4729c0.80915,-0.02884 1.43953,0.28659 1.89163,0.94582c2.35177,-0.14518 4.7163,-0.30267 7.09359,-0.47291c1.21443,0.20524 2.39668,0.5202 3.5468,0.94582c2.39764,-0.19106 4.76216,-0.19106 7.09359,0z" fill="#26394f"/><path d="M213.51725,179.54637c-0.89143,0.73442 -1.36433,1.68024 -1.41872,2.83744c0.10357,0.55567 -0.05391,1.02857 -0.4729,1.41872c-2.92824,1.13403 -4.11051,3.18361 -3.5468,6.14778c-3.60402,4.60753 -7.15082,9.25809 -10.64039,13.95074c-1.37711,0.58641 -2.63835,1.37427 -3.78325,2.36453c-3.9062,0.51216 -7.68946,0.03925 -11.34975,-1.41872c-0.35563,-0.31732 -0.51358,-0.71125 -0.47291,-1.18227c2.04579,0.42088 4.0949,0.8938 6.14778,1.41872c0.63038,-0.31543 0.63038,-0.63039 0,-0.94582c-3.10983,-0.69328 -3.10983,-0.92973 0,-0.70936c0.69376,0.51925 1.08816,1.22861 1.18227,2.12808c1.38514,-1.95547 3.1978,-2.50734 5.43843,-1.65517c3.38932,-4.65009 6.77817,-9.30065 10.16748,-13.95074c0.23977,-0.70747 0.00331,-1.25934 -0.70936,-1.65517c0.56134,-0.48189 1.03424,-1.03378 1.41872,-1.65518c-0.4729,0 -0.94581,0 -1.41872,0c0.38448,-0.6214 0.85738,-1.17328 1.41872,-1.65517c-1.51188,-0.46676 -2.85162,-0.2303 -4.0197,0.70936c-0.57411,-0.73253 -1.28347,-1.28394 -2.12807,-1.65517c-2.32575,-0.09222 -4.61131,-0.32867 -6.85715,-0.70936c-0.10971,0.58498 -0.34617,1.05789 -0.70936,1.41872c0.07661,-0.95858 -0.00236,-1.90439 -0.23645,-2.83743c-1.63626,-2.88 -3.44938,-5.63846 -5.43842,-8.27587c-1.09241,-0.23504 -2.19571,-0.31354 -3.31035,-0.23645c-1.18557,0.14424 -2.44682,0.22274 -3.78325,0.23645c-1.64524,1.41636 -1.80272,2.91357 -0.4729,4.49261c0.24875,0.81813 0.72165,1.44898 1.41872,1.89163c0.34144,0.49703 0.81434,0.81246 1.41872,0.94582c3.08808,0.86306 3.08808,1.49344 0,1.89163c-1.86515,-1.62727 -3.67779,-3.36142 -5.43842,-5.20197c-0.34428,-1.29103 -0.26578,-2.55227 0.23645,-3.78325c-2.18482,-0.46959 -4.39141,-0.62754 -6.62069,-0.4729c0.12674,0.75618 -0.03121,1.38656 -0.4729,1.89162c0.09931,-1.53789 -0.21565,-2.95661 -0.94582,-4.25616c1.09761,0.12816 2.04343,-0.18727 2.83744,-0.94581c0.37217,0.3509 0.68713,0.74482 0.94581,1.18227c1.5762,0.31543 3.15286,0.31543 4.72906,0c-0.41663,-0.33482 -0.73158,-0.72922 -0.94581,-1.18227c0.57127,-0.34712 1.20166,-0.5046 1.89163,-0.47291c0,0.78833 0,1.5762 0,2.36454c0.69896,0.1239 1.32934,-0.03358 1.89162,-0.47291c-0.61667,-0.71693 -0.38021,-1.03188 0.70936,-0.94581c2.15456,0.58829 4.28264,0.58829 6.38424,0c0,0.31543 0.15748,0.4729 0.4729,0.4729c2.11909,2.82798 4.48363,5.42897 7.0936,7.80295c-0.33766,0.63512 -0.1797,1.2655 0.47291,1.89163c4.88748,0.56607 9.7745,1.11796 14.66009,1.65518c2.88756,-1.1799 2.88756,-1.88926 0,-2.12808c1.43953,-0.17166 2.85825,-0.40812 4.25616,-0.70936z" fill="#172841"/><path d="M198.38424,174.8173c-0.63038,0 -1.26124,0 -1.89163,0c-1.48634,-0.22179 -2.59011,-1.01012 -3.31034,-2.36453c-0.09789,-1.29529 -0.5708,-2.39906 -1.41872,-3.31035c0.26719,-0.90088 0.7401,-1.68875 1.41872,-2.36453c0.38825,1.39365 0.62471,2.81237 0.70936,4.25616c0.3405,0.73584 0.89237,1.20875 1.65517,1.41872c0.26766,0.74624 0.74057,1.37711 1.41872,1.89163c-0.25726,-0.75429 0.05817,-1.38514 0.94581,-1.89163c0.25442,0.76469 0.4119,1.55302 0.4729,2.36453z" fill="#4fc5e7"/><path d="M199.80296,158.73849c0,0.63038 0,1.26124 0,1.89162c-2.38534,-0.15464 -4.74987,0.00284 -7.09359,0.4729c1.64429,0.31543 3.22096,0.63086 4.72906,0.94582c-2.30164,-0.43082 -4.19326,0.19957 -5.67488,1.89163c-0.94582,-0.31543 -1.89162,-0.63038 -2.83743,-0.94581c0.672,-1.18652 1.46034,-2.29029 2.36453,-3.31035c2.73434,-0.87771 5.57179,-1.19314 8.51232,-0.94581z" fill="#dadede"/><path d="M181.83252,203.66459c0.71976,-1.82683 1.82306,-3.40303 3.31035,-4.72906c0.72922,0.3788 1.51708,0.53628 2.36453,0.47291c-0.05486,1.61261 0.733,2.24346 2.36453,1.89162c0.98459,0.01324 1.8519,-0.30219 2.60099,-0.94581c1.45749,-2.00229 2.79771,-4.05139 4.0197,-6.14778c1.25935,-1.16666 2.44162,-1.00919 3.5468,0.4729c0.23646,-0.4729 0.4729,-0.94581 0.70935,-1.41872c-1.44425,-0.61194 -1.91716,-1.55776 -1.41871,-2.83744c0.29179,-0.05249 0.52823,-0.20997 0.70936,-0.4729c0.23409,-0.93304 0.31306,-1.87885 0.23645,-2.83743c-0.0052,-0.7174 -0.32015,-1.26929 -0.94581,-1.65518c-1.41872,-0.31543 -2.83744,-0.31543 -4.25616,0c-1.79941,2.11767 -3.53356,4.24575 -5.20197,6.38424c-0.33671,-1.08485 0.05722,-2.03065 1.18227,-2.83743c0.23361,-0.77273 0.31212,-1.56107 0.23646,-2.36454c0.15748,-0.63038 0.31543,-1.26124 0.4729,-1.89162c0.36319,-0.36083 0.59965,-0.83374 0.70936,-1.41872c2.24583,0.38069 4.53139,0.61714 6.85715,0.70936c0.84461,0.37123 1.55397,0.92264 2.12807,1.65517c1.16808,-0.93966 2.50782,-1.17612 4.0197,-0.70936c-0.56134,0.48189 -1.03424,1.03377 -1.41872,1.65517c0.4729,0 0.94581,0 1.41872,0c-0.38448,0.6214 -0.85738,1.17329 -1.41872,1.65518c0.71267,0.39583 0.94913,0.9477 0.70936,1.65517c-3.38932,4.65009 -6.77817,9.30065 -10.16748,13.95074c-2.24063,-0.85217 -4.05328,-0.3003 -5.43843,1.65517c-0.09411,-0.89947 -0.48851,-1.60883 -1.18227,-2.12808c-3.10983,-0.22037 -3.10983,0.01608 0,0.70936c0.63038,0.31543 0.63038,0.63039 0,0.94582c-2.05289,-0.52492 -4.10199,-0.99784 -6.14778,-1.41872z" fill="#3d628d"/><path d="M200.27587,187.11287c0.07661,0.95858 -0.00236,1.90439 -0.23645,2.83743c-0.18113,0.26293 -0.41757,0.42041 -0.70936,0.4729c-1.12457,1.12457 -2.07039,2.38582 -2.83744,3.78325c-1.22199,2.0964 -2.56221,4.1455 -4.0197,6.14778c-0.74909,0.64362 -1.6164,0.95905 -2.60099,0.94581c1.69253,-2.59152 3.50518,-5.11401 5.43842,-7.5665c0.30786,-0.82049 0.22936,-1.60882 -0.23645,-2.36453c0.85407,-1.40548 1.79988,-2.74522 2.83744,-4.01971c0.77273,-0.23361 1.56106,-0.31211 2.36453,-0.23645z" fill="#5a6471"/><path d="M196.49262,194.20647c0.76705,-1.39744 1.71287,-2.65868 2.83744,-3.78325c-0.49845,1.27969 -0.02554,2.2255 1.41871,2.83744c-0.23646,0.4729 -0.4729,0.94581 -0.70935,1.41872c-1.10518,-1.48209 -2.28745,-1.63957 -3.5468,-0.4729z" fill="#2a415d"/><path d="M193.65518,165.83208c0.15748,0.4729 0.47291,0.78833 0.94582,0.94581c-0.19815,2.02073 0.11728,3.91236 0.94581,5.67488c-0.7628,-0.20997 -1.31467,-0.68288 -1.65517,-1.41872c-0.08465,-1.44378 -0.32111,-2.8625 -0.70936,-4.25616c-0.67862,0.67578 -1.15153,1.46365 -1.41872,2.36453c0.84792,0.91129 1.32083,2.01506 1.41872,3.31035c-0.65498,-0.5079 -1.20638,-1.13828 -1.65517,-1.89163c-0.93257,-2.96796 -0.06574,-5.17502 2.60098,-6.62069c0.61856,0.34617 1.24942,0.74057 1.89163,1.18227c-1.18983,0.04304 -1.9777,0.27949 -2.36453,0.70936z" fill="#2ca6d2"/><path d="M212.09853,158.26558c-1.27874,0.57411 -2.53998,0.57411 -3.78325,0c-0.4729,0 -0.94582,0 -1.41872,0c-0.02838,-0.25679 -0.18585,-0.41427 -0.4729,-0.4729c-7.07894,0.38825 -14.17253,0.78266 -21.28079,1.18227c2.13707,0.08276 4.18664,0.31921 6.14778,0.70936c-0.6493,-0.07424 -1.28016,0.00473 -1.89163,0.23645c0.37217,0.62092 0.2147,1.17281 -0.4729,1.65517c-4.82317,-0.29226 -9.63121,-0.76516 -14.42364,-1.41872c-0.93919,-0.03263 -1.64856,-0.34759 -2.12808,-0.94581c0.05249,-0.29179 0.20997,-0.52823 0.4729,-0.70936c0.93304,-0.23409 1.87886,-0.31306 2.83744,-0.23645c2.66956,0.41947 5.34952,0.49844 8.03941,0.23645c-1.19929,-0.08796 -2.30258,-0.32441 -3.31035,-0.70936c1.63437,-1.07964 3.21103,-2.26191 4.72906,-3.5468c0.61147,-0.23173 1.24232,-0.3107 1.89163,-0.23646c0.84745,0.38258 1.79326,0.61903 2.83744,0.70936c2.99114,0.23646 5.98605,0.31495 8.98522,0.23646c-0.12012,0.899 0.03784,1.21395 0.47291,0.94581c3.02329,-0.13856 6.01868,0.01892 8.98522,0.47291c0.37738,-0.21612 0.53485,-0.53155 0.4729,-0.94582c0,-0.31543 0.15748,-0.4729 0.4729,-0.4729c0.31543,0 0.63039,0 0.94582,0c0.63038,1.10329 1.26124,2.20705 1.89163,3.31034z" fill="#446a99"/><path d="M206.89656,158.26558c-0.31543,0 -0.4729,0.15748 -0.4729,0.47291c-2.20705,0 -4.41363,0 -6.62069,0c-2.94053,-0.24733 -5.77797,0.0681 -8.51232,0.94581c-1.96114,-0.39015 -4.01072,-0.6266 -6.14778,-0.70936c7.10826,-0.39961 14.20185,-0.79401 21.28079,-1.18227c0.28706,0.05864 0.44453,0.21612 0.4729,0.4729z" fill="#253e59"/><path d="M200.27587,187.11287c-0.80347,-0.07566 -1.5918,0.00284 -2.36453,0.23645c-1.03755,1.27448 -1.98337,2.61423 -2.83744,4.01971c0.46581,0.75571 0.54431,1.54404 0.23645,2.36453c-1.93324,2.45249 -3.74589,4.97498 -5.43842,7.5665c-1.63153,0.35184 -2.41939,-0.27901 -2.36453,-1.89162c-0.84745,0.06337 -1.63531,-0.09411 -2.36453,-0.47291c1.5762,-2.36453 3.15287,-4.72906 4.72906,-7.09359c1.66842,-2.13849 3.40256,-4.26656 5.20197,-6.38424c1.41872,-0.31543 2.83744,-0.31543 4.25616,0c0.62565,0.38589 0.94061,0.93778 0.94581,1.65518z" fill="#bfc4c8"/><path d="M190.81774,195.62518c-0.36177,0.54857 -0.83468,1.02148 -1.41872,1.41872c-0.4729,-0.15748 -0.78833,-0.4729 -0.94581,-0.94581c0.4573,-1.24327 1.24516,-2.18908 2.36453,-2.83744c0.50223,0.75618 0.50223,1.54451 0,2.36453z" fill="#53565b"/><path d="M190.81774,195.62518c0.50223,-0.82002 0.50223,-1.60835 0,-2.36453c0.37596,-1.87271 1.47972,-2.976 3.31034,-3.31035c-0.17119,1.75117 -0.95953,3.16989 -2.36453,4.25616c0.25301,0.83751 0.64741,0.99499 1.18227,0.4729c-0.18822,1.00777 -0.66112,1.95358 -1.41871,2.83744c-0.09931,-0.73679 -0.33577,-1.36718 -0.70936,-1.89163z" fill="#969496"/><path d="M191.76355,163.94046c-0.29415,0.53296 -0.68808,1.00588 -1.18227,1.41872c-0.23598,2.04343 -0.31495,4.09253 -0.23646,6.14778c-1.09052,-0.23315 -2.19381,-0.39062 -3.31034,-0.4729c-0.31543,0 -0.4729,-0.15748 -0.4729,-0.4729c-0.71031,-2.11767 -0.55283,-4.16726 0.4729,-6.14778c0.63038,-0.4729 1.26125,-0.94581 1.89163,-1.41871c0.94582,0.31543 1.89162,0.63038 2.83743,0.94581z" fill="#bdc0c4"/><path d="M187.03449,164.41336c-1.02573,1.98053 -1.18321,4.03011 -0.4729,6.14778c-2.1016,0.58829 -4.22968,0.58829 -6.38424,0c-1.08957,-0.08607 -1.32603,0.22888 -0.70936,0.94581c-0.56229,0.43933 -1.19267,0.59681 -1.89162,0.47291c0,-0.78833 0,-1.5762 0,-2.36454c-0.18585,-0.84366 -0.50081,-1.63152 -0.94582,-2.36453c0.15748,0 0.31543,0 0.47291,0c0.96095,0.25915 1.43385,0.88953 1.41872,1.89162c1.11464,0.07709 2.21793,-0.00142 3.31034,-0.23645c-0.6616,-0.50223 -1.1345,-1.13261 -1.41871,-1.89163c0.45967,-0.9983 0.8536,-2.02309 1.18227,-3.07389c0.89095,0.69849 1.83676,1.32887 2.83743,1.89163c0.35704,1.4173 -0.03689,2.59957 -1.18227,3.5468c0.77273,0.23361 1.56107,0.31211 2.36454,0.23645c-0.07803,-1.42723 0.00095,-2.84595 0.23645,-4.25615c0.1972,-0.59397 0.59113,-0.9094 1.18227,-0.94582z" fill="#7c7f83"/><path d="M187.03449,164.41336c-0.59114,0.03642 -0.98506,0.35184 -1.18227,0.94582c-0.2355,1.4102 -0.31448,2.82892 -0.23645,4.25615c-0.80347,0.07566 -1.59181,-0.00284 -2.36454,-0.23645c1.14538,-0.94723 1.53931,-2.1295 1.18227,-3.5468c-1.00067,-0.56276 -1.94648,-1.19314 -2.83743,-1.89163c-0.32867,1.0508 -0.7226,2.07559 -1.18227,3.07389c0.28421,0.75902 0.75712,1.3894 1.41871,1.89163c-1.09241,0.23504 -2.1957,0.31354 -3.31034,0.23645c0.01513,-1.00209 -0.45777,-1.63247 -1.41872,-1.89162c1.6216,-3.68394 4.45904,-4.86621 8.51232,-3.5468c0.58498,0.10971 1.05788,0.34617 1.41871,0.70936z" fill="#c0c2c4"/><path d="M182.77833,173.39859c-1.67031,2.27231 -2.14321,4.79432 -1.41872,7.5665c-0.60438,-0.13336 -1.07728,-0.44879 -1.41872,-0.94582c0.07755,-1.2707 -0.00142,-2.53194 -0.23645,-3.78325c-0.70038,0.45919 -1.09477,1.08957 -1.18227,1.89162c-1.32981,-1.57904 -1.17234,-3.07625 0.4729,-4.49261c1.33643,-0.01371 2.59768,-0.09221 3.78325,-0.23645z" fill="#646c74"/><path d="M179.94089,180.01927c-0.69707,-0.44264 -1.16997,-1.0735 -1.41872,-1.89163c0.08749,-0.80205 0.48189,-1.43243 1.18227,-1.89162c0.23504,1.25131 0.31401,2.51255 0.23645,3.78325z" fill="#b4babd"/><path d="M191.29065,186.63996c0.07566,0.80347 -0.00284,1.59181 -0.23646,2.36454c-1.12504,0.80678 -1.51898,1.75259 -1.18227,2.83743c-1.5762,2.36453 -3.15287,4.72906 -4.72906,7.09359c-1.48729,1.32603 -2.59058,2.90223 -3.31035,4.72906c-3.8225,-1.9985 -7.60575,-4.12658 -11.34975,-6.38423c-1.7455,-0.22699 -3.47964,-0.77888 -5.20197,-1.65518c0.20146,-0.48615 0.20146,-1.11653 0,-1.89162c2.85967,2.24489 3.64753,1.77198 2.36453,-1.41872c1.18983,0.12059 2.2936,0.51499 3.31035,1.18227c-0.43318,0.13147 -0.74814,0.36792 -0.94581,0.70936c0,0.15748 0,0.31543 0,0.4729c-0.4275,0.33529 -0.58499,0.8082 -0.47291,1.41872c4.02113,1.85521 8.04083,3.74683 12.05911,5.67487c0.79684,-0.7174 1.50621,-1.50573 2.12808,-2.36453c-0.39015,-0.41899 -0.86306,-0.57648 -1.41872,-0.47291c3.00059,-4.11665 5.99598,-8.21485 8.98522,-12.29557z" fill="#2b486a"/><path d="M191.29065,159.6843c-0.90419,1.02006 -1.69253,2.12383 -2.36453,3.31035c-0.63038,0.4729 -1.26125,0.94581 -1.89163,1.41871c-0.36083,-0.36319 -0.83373,-0.59965 -1.41871,-0.70936c-4.05328,-1.31941 -6.89072,-0.13714 -8.51232,3.5468c-0.15748,0 -0.31543,0 -0.47291,0c-1.58897,-0.05486 -3.16516,-0.21234 -4.72906,-0.47291c0,-0.15748 0,-0.31543 0,-0.47291c1.58424,0.07803 3.16043,-0.00095 4.72906,-0.23645c0.55472,-1.47074 0.31827,-1.54972 -0.70935,-0.23646c-1.61309,-0.37501 -3.26826,-0.61147 -4.96552,-0.70936c1.73415,-0.15748 3.46782,-0.31543 5.20197,-0.4729c0.92879,-0.68618 1.55917,-1.55303 1.89163,-2.60099c2.33994,-0.50081 4.70447,-0.57979 7.09359,-0.23646c-1.10329,0.15748 -2.20706,0.31543 -3.31035,0.47291c2.47093,0.26104 4.83547,0.02459 7.0936,-0.70936c0.6876,-0.48236 0.84508,-1.03425 0.4729,-1.65517c0.61147,-0.23173 1.24232,-0.3107 1.89163,-0.23645z" fill="#3c5b7f"/><path d="M175.68474,158.26558c1.47783,-0.46298 3.05403,-0.62092 4.72906,-0.4729c1.00777,0.38494 2.11106,0.6214 3.31035,0.70936c-2.68989,0.26199 -5.36986,0.18302 -8.03941,-0.23645z" fill="#1e344d"/><path d="M177.57636,169.61533c-0.68997,-0.03169 -1.32036,0.1258 -1.89163,0.47291c-0.73016,-0.096 -1.36103,-0.41143 -1.89163,-0.94582c-0.44737,0.2303 -0.92028,0.38778 -1.41872,0.4729c-2.67003,-0.40906 -5.34999,-0.72402 -8.03941,-0.94581c0,-0.63038 0,-1.26124 0,-1.89163c2.52201,0 5.0445,0 7.56651,0c1.5639,0.26057 3.1401,0.41805 4.72906,0.47291c0.44501,0.733 0.75997,1.52086 0.94582,2.36453z" fill="#bcbfc3"/><path d="M170.00986,194.67937c3.3879,2.24678 7.01368,4.1384 10.87685,5.67488c0.64079,-0.32536 1.1137,-0.79827 1.41872,-1.41872c0.55567,-0.10357 1.02857,0.05392 1.41872,0.47291c-0.62187,0.8588 -1.33124,1.64713 -2.12808,2.36453c-4.01828,-1.92804 -8.03799,-3.81966 -12.05911,-5.67487c-0.11208,-0.61052 0.0454,-1.08343 0.47291,-1.41872z" fill="#476fa0"/><path d="M182.30543,198.93553c-0.30503,0.62045 -0.77793,1.09336 -1.41872,1.41872c-3.86317,-1.53647 -7.48895,-3.4281 -10.87685,-5.67488c1.11464,-0.07709 2.21793,0.00142 3.31035,0.23646c2.77265,1.85947 5.76756,3.19921 8.98522,4.0197z" fill="#1c304b"/><path d="M188.92612,161.57593c-2.25813,0.73395 -4.62267,0.9704 -7.0936,0.70936c1.10329,-0.15748 2.20706,-0.31543 3.31035,-0.47291c-2.38913,-0.34333 -4.75365,-0.26435 -7.09359,0.23646c-3.38932,-0.66538 -6.69967,-0.58687 -9.93104,0.23646c0.41663,-0.33482 0.73159,-0.72923 0.94582,-1.18227c1.10329,-0.63038 2.20705,-1.26124 3.31034,-1.89162c0.47952,0.59823 1.18889,0.91318 2.12808,0.94581c4.79244,0.65356 9.60047,1.12646 14.42364,1.41872z" fill="#77a0ca"/><path d="M176.63055,180.01927c-0.16079,1.03046 -0.63369,1.8973 -1.41871,2.60099c-2.52201,0.31543 -2.52201,0.63039 0,0.94582c-1.51472,2.0283 -2.85447,4.15637 -4.01971,6.38423c-0.06573,1.45418 0.17072,2.87291 0.70936,4.25616c-0.63038,0 -1.26124,0 -1.89163,0c0.19768,-0.34144 0.51263,-0.57789 0.94581,-0.70936c-1.01675,-0.66727 -2.12052,-1.06168 -3.31035,-1.18227c-0.15748,-0.31543 -0.31543,-0.63038 -0.4729,-0.94581c1.36907,-2.8904 3.10321,-5.57037 5.20197,-8.03941c-0.32536,-0.64079 -0.79826,-1.11369 -1.41872,-1.41871c1.03992,-3.01573 2.93155,-3.64612 5.67487,-1.89163z" fill="#222c38"/><path d="M167.17242,191.36903c-1.14159,-0.42846 -1.53553,-1.21632 -1.18227,-2.36453c1.30758,-1.7786 2.41087,-3.67023 3.31034,-5.67488c0.35894,-0.73916 0.91082,-1.21205 1.65517,-1.41871c0.62045,0.30503 1.09336,0.77792 1.41872,1.41871c-2.09876,2.46904 -3.8329,5.14901 -5.20197,8.03941z" fill="#3f4b57"/><path d="M168.11823,171.03405c-1.11464,0.07709 -2.21793,-0.00141 -3.31034,-0.23645c-0.26293,-0.18113 -0.42042,-0.41757 -0.47291,-0.70936c-0.53107,-1.17234 -0.53107,-2.27563 0,-3.31035c0,0.63038 0,1.26124 0,1.89163c2.68942,0.22179 5.36938,0.53674 8.03941,0.94581c0.49845,-0.08513 0.97135,-0.2426 1.41872,-0.4729c0.5306,0.53438 1.16146,0.84982 1.89163,0.94582c0.21422,0.45305 0.52918,0.84744 0.94581,1.18227c-1.5762,0.31543 -3.15286,0.31543 -4.72906,0c-0.25868,-0.43744 -0.57364,-0.83137 -0.94581,-1.18227c-0.79401,0.75854 -1.73983,1.07397 -2.83744,0.94581z" fill="#666d73"/><path d="M181.35961,182.85671c-1.70861,-0.77036 -3.28481,-1.71618 -4.72906,-2.83744c-2.74333,-1.75448 -4.63495,-1.12409 -5.67487,1.89163c-0.74436,0.20666 -1.29624,0.67956 -1.65517,1.41871c-0.89947,2.00465 -2.00276,3.89628 -3.31034,5.67488c-0.35326,1.14821 0.04067,1.93607 1.18227,2.36453c0.15748,0.31543 0.31543,0.63038 0.4729,0.94581c1.28299,3.1907 0.49514,3.6636 -2.36453,1.41872c-0.15748,0 -0.31543,0 -0.4729,0c0.07047,-0.4975 -0.00804,-0.9704 -0.23646,-1.41872c-1.39507,-0.89237 -2.73529,-1.83819 -4.0197,-2.83744c3.0668,-4.55173 5.90424,-9.28079 8.51232,-14.18719c0.4417,-0.50507 0.59965,-1.13545 0.4729,-1.89162c2.22928,-0.15464 4.43587,0.00331 6.62069,0.4729c-0.50223,1.23098 -0.58073,2.49221 -0.23645,3.78325c1.76063,1.84055 3.57327,3.5747 5.43842,5.20197z" fill="#436a99"/><path d="M165.2808,195.62518c-1.75968,-0.87677 -3.33588,-1.98005 -4.72906,-3.31034c0.58404,-0.10451 1.05694,-0.41994 1.41872,-0.94581c0.63038,0.4729 1.26124,0.94581 1.89163,1.41872c-0.52445,0.69281 -0.288,1.16572 0.70936,1.41872c0.18869,-0.10782 0.2672,-0.26577 0.23646,-0.47291c0.15748,0 0.31543,0 0.4729,0c0.20146,0.77509 0.20146,1.40547 0,1.89162z" fill="#6f777d"/><path d="M164.80789,193.73356c0.03074,0.20713 -0.04776,0.36508 -0.23646,0.47291c-0.99736,-0.25301 -1.23381,-0.72591 -0.70936,-1.41872c-0.63038,-0.4729 -1.26124,-0.94581 -1.89163,-1.41872c-0.36177,0.52587 -0.83468,0.8413 -1.41872,0.94581c-0.58735,-0.9983 -0.58735,-1.94412 0,-2.83744c1.28441,0.99925 2.62463,1.94506 4.0197,2.83744c0.22842,0.44832 0.30692,0.92122 0.23646,1.41872z" fill="#bdc7cb"/><path d="M178.04927,162.04883c-0.33246,1.04796 -0.96284,1.9148 -1.89163,2.60099c-1.73415,0.15748 -3.46782,0.31543 -5.20197,0.4729c1.69726,0.09789 3.35243,0.33435 4.96552,0.70936c1.02763,-1.31326 1.26407,-1.23428 0.70935,0.23646c-1.56863,0.2355 -3.14482,0.31448 -4.72906,0.23645c-2.99917,-0.0785 -5.99409,0 -8.98522,0.23646c0.39583,0.47811 0.5533,1.02999 0.47291,1.65517c-2.99917,0.0785 -5.99409,0 -8.98522,-0.23646c-1.18321,-2.21509 -2.12902,-4.50113 -2.83744,-6.85715c5.85316,0.33623 11.68599,0.33623 17.49754,0c-0.21422,0.45305 -0.52919,0.84745 -0.94582,1.18227c3.23137,-0.82333 6.54172,-0.90184 9.93104,-0.23646z" fill="#3d628d"/><path d="M169.06405,160.63011c0,0.15748 0,0.31543 0,0.4729c-5.81154,0.33623 -11.64437,0.33623 -17.49753,0c0,-0.31543 0,-0.63038 0,-0.94581c5.80351,-0.22652 11.63634,-0.06905 17.49754,0.4729z" fill="#86a9d0"/><path d="M160.07883,166.30499c-0.00804,0.7226 -0.32347,0.95906 -0.94582,0.70936c-0.90656,-1.18132 -1.6949,-2.44256 -2.36453,-3.78325c0.4729,-0.31543 0.94582,-0.31543 1.41872,0c0.58309,1.0943 1.21395,2.11909 1.89163,3.07389z" fill="#172943"/><path d="M157.24139,166.30499c-0.36839,1.14774 -0.92028,1.14774 -1.65517,0c-0.99263,-1.16997 -1.22908,-2.43121 -0.70936,-3.78325c0.80016,1.29151 1.58802,2.55275 2.36453,3.78325z" fill="#122236"/><path d="M171.90149,166.30499c0,0.15748 0,0.31543 0,0.47291c-2.52201,0 -5.0445,0 -7.56651,0c-0.53107,1.03472 -0.53107,2.13801 0,3.31035c-2.52721,-0.0785 -5.04922,0.00047 -7.5665,0.23645c-0.7018,0.31306 -1.33218,0.70747 -1.89163,1.18227c-0.68666,-0.37927 -1.47452,-0.61572 -2.36453,-0.70935c0.68004,-0.74199 1.3894,-1.45135 2.12808,-2.12808c0.35468,0.29604 0.74909,0.5325 1.18227,0.70936c2.51728,0.23598 5.0393,0.31495 7.56651,0.23645c0,-0.4729 0,-0.94581 0,-1.41871c0.0804,-0.62518 -0.07708,-1.17706 -0.47291,-1.65517c2.99113,-0.23646 5.98605,-0.31495 8.98522,-0.23646z" fill="#142236"/><path d="M169.06405,160.63011c-5.8612,-0.54195 -11.69403,-0.69942 -17.49753,-0.4729c-0.77651,0.74767 -1.72233,1.06262 -2.83744,0.94581c0.50979,1.95878 1.69206,3.3775 3.5468,4.25616c2.38817,3.56335 1.36387,4.66711 -3.07389,3.31034c-0.16741,-2.72867 -0.64032,-5.40863 -1.41872,-8.03941c0.02033,-0.43318 0.17781,-0.74861 0.4729,-0.94581c0.37312,-0.13384 0.68856,-0.37028 0.94582,-0.70936c7.10494,-0.35799 14.19854,-0.20051 21.28078,0.4729c-0.41285,0.49418 -0.88575,0.88811 -1.41872,1.18227z" fill="#43658d"/><path d="M163.38917,168.19662c0,0.4729 0,0.94581 0,1.41871c-2.52721,0.0785 -5.04923,-0.00047 -7.56651,-0.23645c-0.43318,-0.17686 -0.82758,-0.41332 -1.18227,-0.70936c-0.73868,0.67673 -1.44804,1.38609 -2.12808,2.12808c0.89001,0.09364 1.67788,0.33008 2.36453,0.70935c-1.02999,3.552 -2.29123,7.01983 -3.78325,10.40395c-1.06073,0.46061 -2.16402,0.61856 -3.31035,0.4729c0.85975,-3.76339 1.96351,-7.46767 3.31035,-11.1133c-0.40481,-0.75429 -1.03519,-1.14821 -1.89163,-1.18227c0,-0.4729 0,-0.94582 0,-1.41872c4.43776,1.35677 5.46206,0.25301 3.07389,-3.31034c-1.85474,-0.87866 -3.03701,-2.29738 -3.5468,-4.25616c1.11512,0.11681 2.06093,-0.19814 2.83744,-0.94581c0,0.31543 0,0.63038 0,0.94581c0.70842,2.35602 1.65423,4.64205 2.83744,6.85715c2.99113,0.23646 5.98605,0.31495 8.98522,0.23646z" fill="#1b324f"/><path d="M147.78326,182.38381c-0.94582,0 -1.41872,-0.4729 -1.41872,-1.41872c0.8692,-3.63334 1.81502,-7.25911 2.83744,-10.87685c0.85644,0.03405 1.48682,0.42798 1.89163,1.18227c-1.34683,3.64563 -2.4506,7.34991 -3.31035,11.1133z" fill="#486b97"/><path d="M149.20198,168.66952c0,0.4729 0,0.94582 0,1.41872c-1.02242,3.61774 -1.96824,7.2435 -2.83744,10.87685c-0.34144,0.19768 -0.57789,0.51264 -0.70936,0.94582c-0.98601,-0.78928 -1.53742,-1.81407 -1.65517,-3.0739c1.87602,-5.472 2.34892,-11.0679 1.41872,-16.78817c-0.08796,-2.28934 0.85786,-3.07767 2.83744,-2.36453c-0.2951,0.1972 -0.45257,0.51263 -0.4729,0.94581c0.7784,2.63078 1.25131,5.31074 1.41872,8.03941z" fill="#373b3f"/></g><path d="M184.44896,175.62648c0,1.65685 -1.41776,3 -3.16667,3c-1.7489,0 -3.16667,-1.34315 -3.16667,-3c0,-1.65685 1.41776,-3 3.16667,-3c1.7489,0 3.16667,1.34315 3.16667,3z" fill="#fff9e1" fill-rule="nonzero" stroke="#e9d39d"/><path d="M166.92868,190.0313c-1.54507,-0.92348 -3.39796,-3.57001 -3.2686,-5.93006c0.07229,-1.31879 4.77599,-10.44302 6.47242,-11.4787c2.01735,-1.23162 5.51189,-0.68201 7.05696,0.24147c2.84437,1.70006 2.85323,6.92127 0.01979,11.66189c-2.83344,4.74062 -7.43622,7.20547 -10.28059,5.50541z" fill="#fff9e1" fill-rule="nonzero" stroke="#e9d39d"/><path d="M158.11563,158.29314c0,1.65685 -1.41776,3 -3.16667,3c-1.7489,0 -3.16667,-1.34315 -3.16667,-3c0,-1.65685 1.41776,-3 3.16667,-3c1.7489,0 3.16667,1.34315 3.16667,3z" fill="#fff9e1" fill-rule="nonzero" stroke="#e9d39d"/></g></g></g></svg>